<?xml version="1.0" encoding="utf-8"?>
<!-- Generator: Adobe Illustrator 14.0.0, SVG Export Plug-In . SVG Version: 6.00 Build 43363)  -->
<!DOCTYPE svg PUBLIC "-//W3C//DTD SVG 1.1//EN" "http://www.w3.org/Graphics/SVG/1.1/DTD/svg11.dtd">
<svg version="1.1" id="Layer_1" xmlns="http://www.w3.org/2000/svg" xmlns:xlink="http://www.w3.org/1999/xlink" x="0px" y="0px"
	 width="1000px" height="1000px" viewBox="0 0 1000 1000" enable-background="new 0 0 1000 1000" xml:space="preserve">
<rect x="0.04" y="-0.04" fill-rule="evenodd" clip-rule="evenodd" fill="#E4E2E1" width="1000" height="1000"/>
<rect x="200.04" y="199.96" fill-rule="evenodd" clip-rule="evenodd" fill="#FFFFFF" width="600" height="600"/>
<polygon fill-rule="evenodd" clip-rule="evenodd" points="709.219,458.14 730.434,458.14 730.434,460.142 711.434,460.142 
	711.434,471.942 728.517,471.942 728.517,473.944 711.434,473.944 711.434,485.958 730.646,485.958 730.646,487.96 709.219,487.96 
	"/>
<polygon fill-rule="evenodd" clip-rule="evenodd" points="641.057,458.14 643.272,458.14 643.272,471.985 662.357,471.985 
	662.357,458.14 664.572,458.14 664.572,487.96 662.357,487.96 662.357,473.987 643.272,473.987 643.272,487.96 641.057,487.96 "/>
<path fill-rule="evenodd" clip-rule="evenodd" d="M587.338,488.472c-2.131,0-4.104-0.398-5.922-1.193
	c-1.817-0.795-3.387-1.882-4.707-3.259c-1.321-1.377-2.351-3.003-3.089-4.878c-0.738-1.874-1.107-3.876-1.107-6.006v-0.085
	c0-2.102,0.376-4.089,1.129-5.964c0.752-1.875,1.788-3.515,3.109-4.92c1.32-1.406,2.89-2.513,4.707-3.323
	c1.818-0.81,3.806-1.214,5.965-1.214c1.335,0,2.542,0.114,3.62,0.341c1.08,0.228,2.081,0.554,3.004,0.98
	c0.923,0.426,1.789,0.93,2.599,1.512c0.81,0.583,1.598,1.229,2.364,1.938l-1.576,1.619c-0.653-0.625-1.335-1.207-2.045-1.747
	s-1.47-1.001-2.279-1.384c-0.809-0.384-1.689-0.688-2.641-0.916c-0.952-0.228-1.981-0.341-3.089-0.341
	c-1.789,0-3.451,0.341-4.984,1.022s-2.861,1.626-3.983,2.833c-1.121,1.207-2.002,2.621-2.641,4.239
	c-0.64,1.619-0.959,3.365-0.959,5.24v0.085c0,1.875,0.327,3.628,0.98,5.261s1.54,3.053,2.662,4.26s2.449,2.158,3.982,2.854
	c1.534,0.696,3.196,1.044,4.985,1.044c2.158,0,4.032-0.397,5.623-1.193c1.59-0.795,3.138-1.945,4.644-3.45l1.491,1.448
	c-0.796,0.767-1.612,1.47-2.45,2.109s-1.732,1.186-2.684,1.64s-1.98,0.81-3.089,1.065
	C589.851,488.344,588.644,488.472,587.338,488.472z"/>
<path fill-rule="evenodd" clip-rule="evenodd" d="M515.726,457.927h2.13l13.888,30.033h-2.428l-3.792-8.35H507.93l-3.792,8.35h-2.3
	L515.726,457.927L515.726,457.927z M524.586,477.608l-7.838-17.253l-7.881,17.253H524.586z"/>
<path fill-rule="evenodd" clip-rule="evenodd" d="M440.151,458.14h10.821c1.647,0,3.145,0.206,4.494,0.618
	c1.349,0.412,2.514,1.008,3.493,1.789c0.98,0.781,1.74,1.732,2.279,2.854c0.54,1.122,0.81,2.407,0.81,3.855v0.085
	c0,1.562-0.313,2.939-0.937,4.132c-0.625,1.193-1.47,2.187-2.535,2.982c-1.065,0.795-2.3,1.392-3.706,1.789
	c-1.406,0.398-2.889,0.597-4.452,0.597h-8.051v11.119h-2.215V458.14L440.151,458.14z M450.546,474.839
	c1.392,0,2.655-0.17,3.792-0.511c1.136-0.348,2.108-0.838,2.918-1.484c0.81-0.639,1.441-1.42,1.896-2.336
	c0.454-0.909,0.682-1.924,0.682-3.039v-0.085c0-1.2-0.22-2.251-0.661-3.153c-0.44-0.895-1.058-1.647-1.853-2.25
	c-0.795-0.597-1.747-1.051-2.854-1.371c-1.107-0.312-2.329-0.468-3.663-0.468h-8.435v14.697H450.546z"/>
<path fill-rule="evenodd" clip-rule="evenodd" d="M382.044,457.927h2.13l13.888,30.033h-2.428l-3.792-8.35h-17.594l-3.792,8.35
	h-2.301L382.044,457.927L382.044,457.927z M390.905,477.608l-7.839-17.253l-7.881,17.253H390.905z"/>
<path fill-rule="evenodd" clip-rule="evenodd" d="M734.67,515.706c0,7.213-3.147,11.758-9.443,13.634l11.445,15.886h-9.382
	l-10.444-14.697h-9.693v14.697h-7.38V501.51h16.261c6.671,0,11.444,1.126,14.322,3.377
	C733.231,507.139,734.67,510.745,734.67,515.706L734.67,515.706z M716.346,523.837c4.169,0,7.005-0.646,8.506-1.939
	c1.501-1.292,2.251-3.366,2.251-6.223c0-2.855-0.771-4.815-2.313-5.878c-1.543-1.064-4.295-1.596-8.256-1.596h-9.381v15.636H716.346
	z"/>
<path fill-rule="evenodd" clip-rule="evenodd" d="M685.538,539.19c-4.419,4.315-9.881,6.473-16.386,6.473
	c-6.504,0-11.966-2.157-16.385-6.473c-4.42-4.315-6.63-9.694-6.63-16.136s2.21-11.82,6.63-16.136
	c4.419-4.314,9.881-6.473,16.385-6.473c6.505,0,11.967,2.158,16.386,6.473c4.42,4.315,6.63,9.694,6.63,16.136
	S689.958,534.875,685.538,539.19L685.538,539.19z M680.129,511.829c-2.981-3.086-6.64-4.628-10.977-4.628
	c-4.336,0-7.994,1.542-10.976,4.628c-2.98,3.085-4.472,6.827-4.472,11.226s1.491,8.141,4.472,11.227
	c2.981,3.085,6.64,4.628,10.976,4.628c4.337,0,7.995-1.543,10.977-4.628c2.98-3.086,4.471-6.828,4.471-11.227
	S683.109,514.914,680.129,511.829z"/>
<polygon fill-rule="evenodd" clip-rule="evenodd" points="630.591,508.264 630.591,545.226 623.211,545.226 623.211,508.264 
	609.952,508.264 609.952,501.51 643.849,501.51 643.849,508.264 "/>
<path fill-rule="evenodd" clip-rule="evenodd" d="M579.02,535.281l-4.378,9.944h-7.88l19.263-43.716h7.88l19.263,43.716h-7.88
	l-4.379-9.944H579.02L579.02,535.281z M597.906,528.464l-7.942-18.011l-7.942,18.011H597.906z"/>
<path fill-rule="evenodd" clip-rule="evenodd" d="M550.026,545.226h-19.138V501.51H547.9c2.96,0,5.514,0.354,7.661,1.063
	c2.146,0.709,3.741,1.668,4.784,2.878c2.001,2.251,3.002,4.795,3.002,7.63c0,3.418-1.084,5.962-3.253,7.63
	c-0.792,0.584-1.334,0.948-1.626,1.094c-0.292,0.146-0.813,0.386-1.563,0.72c2.71,0.584,4.868,1.803,6.474,3.658
	c1.604,1.855,2.407,4.159,2.407,6.911c0,3.043-1.042,5.732-3.127,8.067C560.199,543.87,555.988,545.226,550.026,545.226
	L550.026,545.226z M538.269,538.408h11.57c2.71,0,4.784-0.427,6.223-1.281c1.438-0.855,2.157-2.471,2.157-4.848
	c0-3.877-3.105-5.815-9.318-5.815h-10.632V538.408L538.269,538.408z M538.269,519.646h9.381c5.337,0,8.005-1.813,8.005-5.441
	c0-2.084-0.646-3.585-1.938-4.503c-1.292-0.917-3.294-1.376-6.004-1.376h-9.443V519.646z"/>
<path fill-rule="evenodd" clip-rule="evenodd" d="M494.39,535.219c2.001,2.335,4.711,3.502,8.13,3.502s6.129-1.167,8.13-3.502
	c2.002-2.335,3.002-5.504,3.002-9.506V501.51h7.38v24.516c0,6.296-1.729,11.143-5.19,14.541c-3.461,3.397-7.901,5.097-13.321,5.097
	s-9.861-1.699-13.321-5.097c-3.461-3.398-5.191-8.245-5.191-14.541V501.51h7.38v24.203
	C491.388,529.715,492.389,532.884,494.39,535.219z"/>
<path fill-rule="evenodd" clip-rule="evenodd" d="M460.206,538.533c2.543,0,4.732-0.427,6.567-1.281
	c1.834-0.855,3.752-2.221,5.753-4.097l4.753,4.878c-4.628,5.128-10.247,7.692-16.854,7.692c-6.609,0-12.091-2.126-16.448-6.379
	s-6.536-9.632-6.536-16.136s2.22-11.924,6.661-16.26c4.44-4.337,10.048-6.505,16.823-6.505c6.775,0,12.435,2.502,16.979,7.505
	l-4.69,5.129c-2.084-2.002-4.055-3.398-5.91-4.19c-1.855-0.792-4.034-1.188-6.536-1.188c-4.419,0-8.13,1.428-11.132,4.284
	c-3.002,2.855-4.503,6.504-4.503,10.944s1.491,8.151,4.472,11.132C452.586,537.043,456.12,538.533,460.206,538.533z"/>
<polygon fill-rule="evenodd" clip-rule="evenodd" points="422.456,501.51 429.836,501.51 429.836,545.226 421.831,545.226 
	397.065,513.33 397.065,545.226 389.686,545.226 389.686,501.51 397.065,501.51 422.456,534.155 "/>
<rect x="371.887" y="501.51" fill-rule="evenodd" clip-rule="evenodd" width="7.379" height="43.716"/>
<linearGradient id="SVGID_1_" gradientUnits="userSpaceOnUse" x1="298.3716" y1="547.5273" x2="313.0645" y2="470.1827">
	<stop  offset="0" style="stop-color:#1A1853"/>
	<stop  offset="0.5" style="stop-color:#CA2026"/>
	<stop  offset="1" style="stop-color:#F8991D"/>
</linearGradient>
<path fill-rule="evenodd" clip-rule="evenodd" fill="url(#SVGID_1_)" d="M308.331,459.957c-0.003-0.324-0.008-0.649-0.016-0.978
	c0.067,0.107,0.256,0.435,0.569,0.978H308.331L308.331,459.957z M296.568,494.187c-3.432,6.382-5.389,13.041-5.889,19.971
	c-0.445,6.171,0.222,11.492,2.021,15.953c0.246,0.607,0.484,1.168,0.722,1.688c-1.422-1.006-2.779-2.055-4.073-3.149
	c-0.109-0.086-0.188-0.122-0.238-0.109c1.699,2.717,3.816,5.179,6.354,7.387c0.392,0.342,1.046,0.504,1.207,1.007
	c0.459,1.443-0.789,14.4,3.219,17.419c2.549,1.918,13.815-0.494,17.293-1.617c18.147-5.861,32.222-22.622,30.128-46.777
	c-2.296-26.491-19.748-53.431-37.154-59.906c-4.705-1.751-5.749-1.591-10.635,0.499c-16.984,7.263-33.667,33.549-35.908,59.407
	c-2.153,24.846,12.797,41.868,31.693,47.252c0.511,0.146,1.005,0.28,1.485,0.407c-0.487-1.007-0.885-2.148-1.208-3.356
	c-19.792-5.886-30.863-23.434-29.076-44.051c1.708-19.71,14.918-48.76,34.154-56.987c4.021-1.718,4.402-1.963,8.479-0.446
	c19.745,7.344,33.537,37.397,35.273,57.434c1.857,21.422-10.222,39.447-31.112,44.609c-2.101,0.519-3.923,0.862-5.629,1.033
	c-5.413,0.543-7.295,1.501-8.288-4.136c-2.187-12.433-0.534-34.932,4.876-43.565c0.043-0.627,0.007,0.521-0.4,1.501
	c-0.188,0.44-0.309,0.709-0.362,0.847c-3.24,7.422-5.048,28.953-3.506,33.042c-0.446-1.465,0.353-4.55,1.51-5.183l0.663-0.464
	c3.628-2.613,5.973-6.718,8.595-11.917c-0.045-0.072-0.13-0.063-0.252,0.025c-1.224,1.023-2.486,1.942-3.783,2.755
	c2.953-3.102,5.531-7.062,7.741-11.886c-0.06-0.088-0.162-0.072-0.308,0.042c-0.872,0.787-1.76,1.528-2.667,2.224
	c3.708-6.714,6.974-14.491,7.316-23.379c0.169-5.753-0.883-11.296-3.159-16.59c-0.785-1.81-1.88-3.973-3.292-6.525
	c-2.087-3.763-3.215-5.801-3.395-6.097c0.093,8.157-1.346,14.788-4.315,19.84c-0.766,1.341-2.125,3.296-4.089,5.859
	C298.735,490.638,297.397,492.617,296.568,494.187z"/>
</svg>
