<?xml version="1.0" standalone="no"?>
<!DOCTYPE svg PUBLIC "-//W3C//DTD SVG 1.1//EN" "http://www.w3.org/Graphics/SVG/1.1/DTD/svg11.dtd">
<svg xmlns="http://www.w3.org/2000/svg">
<defs >
<font id="Trykker" horiz-adv-x="1197" ><font-face
    font-family="Trykker"
    units-per-em="2048"
    panose-1="2 3 5 2 7 8 0 3 3 3"
    ascent="2022"
    descent="-538"
    alphabetic="0" />
<glyph unicode=" " glyph-name="space" horiz-adv-x="682" />
<glyph unicode="!" glyph-name="exclam" horiz-adv-x="512" d="M156 1498Q208 1508 246 1508T345 1498Q340 1228 329 1015T310 663T291 344Q272 337 251 337Q228 337 210 344Q166 1011 156 1498ZM155 29T144 50T133 93T142 137T167 176Q203 216 237 216T294 207T336
182Q378 147 378 115T368 60T341 20Q302 -21 253 -21Q211 -21 183 4Z" />
<glyph unicode="&quot;" glyph-name="quotedbl" horiz-adv-x="854" d="M512 1493Q549 1508 589 1508T681 1479Q681 1203 647 1052Q621 1038 602 1038Q565 1038 533 1063Q525 1114 523 1216T518 1360Q515 1464 512 1493ZM312 1052Q287 1038 268 1038Q230 1038 200
1063Q196 1126 193 1176T186 1270L182 1357Q177 1433 177 1493Q216 1508 256 1508T346 1479Q346 1273 312 1052Z" />
<glyph unicode="#" glyph-name="numbersign" horiz-adv-x="1362" d="M364 402H122Q98 471 145 521H391L459 825H234Q214 894 257 942H486L576 1340Q638 1340 670 1319L583 942H914L1005 1340Q1067 1340 1099 1319L1012 942H1245Q1255 878 1221 825H985L916 521H1131Q1142
451 1108 402H889L785 -52Q761 -54 731 -44L693 -31L791 402H460L356 -52Q331 -54 303 -44T266 -31L364 402ZM818 521L887 825H556L487 521H818Z" />
<glyph unicode="$" glyph-name="dollar" horiz-adv-x="1196" d="M204 407Q248 412 283 393Q283 268 294 224Q384 137 528 100L552 655Q367 747 300 810T200 938T166 1088T196 1244T282 1370Q395 1484 574 1504L578 1639Q635 1656 687 1634L681 1506Q811 1498 909
1459T1056 1391L985 1079Q951 1073 908 1090Q908 1123 906 1153T902 1213T895 1263Q802 1337 674 1364L649 845Q726 807 803 765T942 669Q1082 547 1082 377Q1082 200 957 90Q833 -20 628 -34L626 -173Q567 -185 517 -167L522 -35Q352 -27 225 34Q170 61 134 94L204
407ZM571 1377Q564 1378 558 1378H545Q442 1378 384 1314Q331 1257 331 1155Q331 1035 470 944Q512 916 560 891L571 1377ZM651 85Q833 85 890 220Q911 268 911 326T890 422T831 494Q775 543 641 611L631 85H651Z" />
<glyph unicode="%" glyph-name="percent" horiz-adv-x="1703" d="M442 758Q364 758 304 786T202 864Q119 962 119 1119Q119 1289 226 1400Q331 1508 485 1508Q652 1508 743 1404Q828 1307 828 1144Q828 974 714 864Q605 758 442 758ZM384 884T420 864T493 843T556
857T604 902Q647 966 647 1066T633 1228T592 1331Q539 1416 447 1416Q379 1416 339 1352T298 1182T314 1019T357 923ZM876 330Q876 411 904 482T982 606Q1087 714 1240 714Q1408 714 1498 610Q1584 511 1584 351Q1584 179 1470 70Q1361 -36 1198 -36Q1047 -36 958
70Q876 168 876 330ZM1054 352Q1054 281 1069 225T1112 129Q1169 49 1255 49Q1358 49 1392 184Q1403 231 1403 294Q1403 454 1348 538T1202 622Q1054 622 1054 352ZM1304 1636Q1324 1633 1348 1618T1384 1585L428 -125Q380 -116 343 -78L1304 1636Z" />
<glyph unicode="&amp;" glyph-name="ampersand" horiz-adv-x="1532" d="M1083 107Q896 -36 655 -36Q406 -36 268 69Q128 174 128 358Q128 487 206 581Q262 648 431 761Q283 979 283 1135Q283 1307 396 1412Q497 1508 646 1508Q789 1508 872 1416Q949 1329 949
1189Q949 1016 756 854Q701 808 641 771Q813 553 1098 337Q1196 494 1239 685Q1313 675 1361 616Q1382 590 1394 560Q1376 486 1323 394T1224 246Q1373 149 1446 106Q1424 39 1384 1T1300 -49Q1160 48 1083 107ZM589 841Q677 925 707 981Q756 1075 756 1146T745
1259T712 1333Q665 1400 585 1400Q536 1400 506 1367Q448 1303 448 1212Q448 1046 589 841ZM485 688Q326 577 326 393Q326 264 415 174Q511 76 677 76Q844 76 977 193L846 306Q624 505 485 688Z" />
<glyph unicode="&apos;" glyph-name="quotesingle" horiz-adv-x="512" d="M312 1052Q287 1038 268 1038Q230 1038 200 1063Q196 1126 193 1176T186 1270L182 1357Q177 1433 177 1493Q216 1508 256 1508T346 1479Q346 1273 312 1052Z" />
<glyph unicode="(" glyph-name="parenleft" horiz-adv-x="854" d="M101 603Q101 923 248 1202Q384 1463 613 1627Q618 1632 630 1622Q653 1602 653 1571Q463 1374 368 1180Q247 936 247 650Q247 338 397 84Q527 -135 752 -288Q734 -389 636 -434Q253 -160 140
286Q101 436 101 603Z" />
<glyph unicode=")" glyph-name="parenright" horiz-adv-x="854" d="M752 593Q752 273 605 -6Q469 -267 240 -431Q235 -436 223 -426Q200 -406 200 -375Q390 -178 485 16Q606 260 606 546Q606 858 456 1112Q326 1331 101 1484Q119 1585 217 1630Q600 1356 713 910Q752
760 752 593Z" />
<glyph unicode="*" glyph-name="asterisk" horiz-adv-x="1026" d="M860 1324Q869 1304 869 1271T860 1213L591 1222L638 961Q604 929 532 926L457 1178L226 1060Q177 1086 157 1149L372 1295L190 1481Q200 1530 254 1571L457 1404L581 1644L598 1647Q639 1647
687 1613L591 1366L860 1324Z" />
<glyph unicode="+" glyph-name="plus" horiz-adv-x="1194" d="M1042 593T1042 580T1033 532H649V139Q620 131 598 131T546 139V532H161Q144 579 161 627H546V1011Q569 1019 597 1019T649 1011V627H1033Q1042 593 1042 580Z" />
<glyph unicode="," glyph-name="comma" horiz-adv-x="512" d="M158 48Q145 65 145 89T155 134T183 174Q223 216 255 216T310 203T351 170Q390 125 390 75T381 -20T355 -104Q294 -252 166 -339Q126 -330 122 -288Q124 -288 141 -269T178 -222Q230 -147 230 -101T217
-29T188 14L158 48Z" />
<glyph unicode="-" glyph-name="hyphen" horiz-adv-x="650" d="M94 506Q73 568 108 624H555Q569 566 542 506H94Z" />
<glyph unicode="." glyph-name="period" horiz-adv-x="512" d="M155 29T144 50T133 93T142 137T167 176Q203 216 237 216T294 207T336 182Q378 147 378 115T368 60T340 20Q301 -21 252 -21Q210 -21 183 4Z" />
<glyph unicode="/" glyph-name="slash" horiz-adv-x="856" d="M670 1607Q706 1607 735 1593T772 1571L183 -162Q145 -162 84 -128L670 1607Z" />
<glyph unicode="0" glyph-name="zero" horiz-adv-x="1362" d="M137 532Q137 650 177 754T290 934Q446 1095 679 1095Q926 1095 1076 934Q1220 778 1220 528Q1220 297 1070 134Q915 -36 679 -36Q434 -36 282 131Q137 290 137 532ZM297 535Q297 444 326 364T408
222Q527 83 701 83Q864 83 965 218Q1060 345 1060 528Q1060 726 949 850Q836 977 658 977Q495 977 395 850Q297 726 297 535Z" />
<glyph unicode="1" glyph-name="one" horiz-adv-x="851" d="M125 85L378 128V891L108 842L101 856L112 942L556 1097L581 1071L538 904V128L771 94L778 80L764 0H120L116 9L125 85Z" />
<glyph unicode="2" glyph-name="two" horiz-adv-x="1192" d="M132 101Q498 347 630 495Q744 624 744 739Q744 828 686 886Q623 949 536 949Q346 949 203 831Q137 873 137 923Q299 1054 494 1088Q539 1095 600 1095T727 1074T844 1014Q951 928 951 784Q951 626
815 484Q725 390 589 290L339 108Q891 108 904 155L944 317Q981 328 1026 323L1059 0H167Q124 35 132 101Z" />
<glyph unicode="3" glyph-name="three" horiz-adv-x="1023" d="M840 789Q840 566 551 431Q760 418 856 314Q933 229 933 90Q933 -121 758 -250Q593 -372 363 -372Q263 -372 182 -339Q155 -328 137 -313V-304Q137 -212 188 -158Q265 -235 374 -262Q408 -271 454
-271T555 -246T650 -178Q738 -84 738 48Q738 193 650 274Q573 344 479 344T323 325Q299 362 299 388Q299 421 301 427Q515 491 603 636Q638 693 638 750T626 844T588 908Q533 968 442 968Q352 968 289 934T198 874Q137 899 132 961Q214 1033 342 1074Q408 1095
490 1095T637 1072T747 1008Q840 923 840 789Z" />
<glyph unicode="4" glyph-name="four" horiz-adv-x="1193" d="M1135 146Q1138 48 1112 0H885V-337Q867 -353 844 -364Q791 -389 716 -393V0H130Q88 54 83 110Q232 256 416 556Q609 886 720 1126Q819 1084 899 1011Q867 955 818 878Q670 654 594 548Q337 199 242
99L716 113V511Q767 546 885 580V117Q1028 126 1135 146Z" />
<glyph unicode="5" glyph-name="five" horiz-adv-x="1024" d="M238 492Q395 530 526 530Q699 530 821 422Q947 310 947 145Q947 -105 764 -248Q600 -377 367 -377Q235 -377 145 -310Q104 -281 76 -243Q81 -157 158 -101Q289 -271 459 -271Q585 -271 666 -170Q745
-70 745 84Q745 317 549 384Q484 407 398 407T172 379Q142 391 132 429L212 1048Q513 1034 617 1034T749 1035T794 1041Q821 1047 825 1065L846 1133H870Q905 1133 924 1121L879 872Q849 867 699 867T306 890L238 492Z" />
<glyph unicode="6" glyph-name="six" horiz-adv-x="1196" d="M407 573Q364 573 353 620Q400 701 498 765Q608 838 708 838T876 810T993 730Q1091 627 1091 457Q1091 258 952 114Q810 -36 593 -36Q375 -36 240 122Q114 270 114 485Q114 825 366 1067Q582 1274 883
1342Q915 1295 901 1243Q664 1179 501 1016Q302 817 302 516Q302 308 403 186Q498 72 647 72Q770 72 852 165Q928 251 928 377Q928 531 846 615Q769 692 639 692T407 573Z" />
<glyph unicode="7" glyph-name="seven" horiz-adv-x="1196" d="M316 -315Q316 -315 560 198Q815 701 934 917Q478 909 397 900T295 884Q266 875 261 850L230 706Q207 699 188 699T152 701L115 1048H1077Q1084 1035 1089 1027T1097 1010Q1102 995 1102 961Q1000
791 924 641L798 384Q748 276 696 154L593 -106Q541 -242 493 -389Q437 -387 390 -365T316 -315Z" />
<glyph unicode="8" glyph-name="eight" horiz-adv-x="1196" d="M132 313Q132 535 422 711Q296 784 251 836Q166 934 166 1027T201 1187T296 1302Q423 1400 615 1400Q797 1400 904 1310Q1002 1226 1002 1095Q1002 957 828 820Q777 780 719 742Q880 657 942 599T1034
485T1064 345T1027 187T924 64Q791 -36 573 -36Q367 -36 246 68Q132 166 132 313ZM620 793Q784 896 812 1000Q822 1036 822 1079T805 1162T755 1230Q685 1293 575 1293Q397 1293 342 1174Q324 1137 324 1090T349 1000T415 922Q475 869 620 793ZM512 659Q317 538
317 332Q317 224 390 152Q473 70 615 70Q726 70 806 130Q899 200 899 321Q899 444 660 578L512 659Z" />
<glyph unicode="9" glyph-name="nine" horiz-adv-x="1196" d="M294 -278Q534 -208 702 -21Q903 203 903 544Q903 753 802 873Q705 987 553 987Q433 987 353 894Q277 805 277 698T299 522T360 410Q439 321 575 321Q681 321 752 428Q772 458 789 488Q832 488 843
440Q794 339 707 264Q604 175 506 175T338 206T218 295Q112 414 112 603Q112 803 251 946Q396 1095 607 1095Q842 1095 974 937Q1094 795 1094 575Q1094 197 838 -71Q612 -307 312 -377Q281 -328 294 -278Z" />
<glyph unicode=":" glyph-name="colon" horiz-adv-x="512" d="M324 668T301 657T256 645T212 654T172 680Q133 716 133 749T142 804T167 844Q203 883 237 883T294 874T336 850Q378 814 378 782T368 727T341 687ZM155 29T144 50T133 93T142 137T167 176Q203 216
237 216T294 207T336 182Q378 147 378 115T368 60T341 20Q302 -21 253 -21Q211 -21 183 4Z" />
<glyph unicode=";" glyph-name="semicolon" horiz-adv-x="512" d="M324 668T301 657T256 645T212 654T172 680Q133 716 133 749T142 804T167 844Q203 883 237 883T294 874T336 850Q378 814 378 782T368 727T341 687ZM158 48Q145 65 145 89T156 134T184 174Q224
216 256 216T311 203T352 170Q390 124 390 75T381 -20T355 -104Q294 -251 167 -339Q126 -330 122 -288Q124 -288 141 -269T178 -222Q231 -146 231 -100T218 -29T188 14L158 48Z" />
<glyph unicode="&lt;" glyph-name="less" horiz-adv-x="1193" d="M143 542Q138 583 160 612L983 1189Q1040 1168 1050 1102L261 575L1043 47Q1031 -17 981 -43L143 542Z" />
<glyph unicode="=" glyph-name="equal" horiz-adv-x="1194" d="M1041 767T1041 750T1033 703H161Q144 750 161 797H1033Q1041 767 1041 750ZM1033 451Q1041 421 1041 404T1033 357H161Q144 403 161 451H1033Z" />
<glyph unicode="&gt;" glyph-name="greater" horiz-adv-x="1193" d="M928 573L146 1099Q153 1161 207 1189L1046 605Q1050 568 1030 535L219 -43Q163 -22 153 45L928 573Z" />
<glyph unicode="?" glyph-name="question" horiz-adv-x="1023" d="M486 619T475 581T464 481T483 342Q446 312 398 328Q346 459 346 539T364 670T413 762Q464 831 577 914Q647 966 672 1007Q714 1080 714 1144T703 1250T668 1321Q618 1382 540 1382Q421 1382 313
1301Q266 1265 229 1220Q156 1256 127 1332Q114 1365 112 1400Q189 1457 282 1482T462 1508T628 1478T766 1394Q890 1279 890 1095Q890 933 740 830Q699 802 653 774T570 715T510 652ZM352 29T341 50T330 93T339 137T364 176Q400 216 434 216T490 207T532 182Q575
147 575 115T565 60T538 20Q499 -21 449 -21Q407 -21 380 4Z" />
<glyph unicode="@" glyph-name="at" horiz-adv-x="2048" d="M1365 -344Q1171 -459 924 -459Q595 -459 382 -239Q173 -22 173 308Q173 606 318 866Q457 1118 696 1268Q940 1423 1223 1423Q1519 1423 1698 1231Q1875 1042 1875 737Q1875 427 1700 198Q1586 50 1427
-12Q1347 -43 1259 -45L1230 -29L1164 177L978 -36Q804 -36 700 72Q603 173 603 325Q603 519 694 696Q775 853 902 952Q1024 1048 1113 1048Q1302 1048 1403 977L1301 236L1365 78Q1421 78 1483 124T1588 220T1666 338Q1744 493 1744 667T1704 958T1586 1152Q1430
1310 1133 1310Q907 1310 713 1177Q526 1049 416 836Q304 616 304 373Q304 40 472 -152Q653 -360 994 -360Q1112 -360 1234 -316Q1289 -297 1334 -271Q1365 -314 1365 -344ZM1225 862Q1161 930 1066 930Q848 799 795 501Q783 434 783 341T833 186T980 125L1155
297L1225 862Z" />
<glyph unicode="A" glyph-name="A" horiz-adv-x="1535" d="M34 85L187 128L673 1480Q723 1506 857 1528L1356 128L1516 94L1523 80L1509 0H1030L1026 9L1035 85L1164 128L1021 533H455L319 128L455 94L462 80L448 0H30L24 9L34 85ZM979 651L731 1317L496 651H979Z" />
<glyph unicode="B" glyph-name="B" horiz-adv-x="1366" d="M119 85L249 128V1364L109 1398L102 1411L116 1492H685Q931 1492 1050 1404T1170 1131Q1170 1020 1102 931Q1033 841 923 825V813Q1246 764 1246 431Q1246 281 1158 176Q1044 42 816 10Q750 0 687 0H114L109
9L119 85ZM640 1376Q539 1376 436 1356V828L541 834L646 838Q705 841 746 841T823 857T891 908Q972 991 972 1120Q972 1376 640 1376ZM840 712Q771 733 689 733T436 718V144Q522 113 636 113T821 132T943 192Q1047 275 1047 431Q1047 649 840 712Z" />
<glyph unicode="C" glyph-name="C" horiz-adv-x="1537" d="M1276 1081Q1220 1081 1189 1092Q1189 1220 1178 1275Q1107 1326 990 1348T768 1371T576 1332T424 1217Q283 1052 283 776Q283 448 461 260Q620 92 852 92Q1048 92 1196 204Q1209 249 1213 398Q1227 403
1242 406L1269 410Q1283 412 1297 412L1352 99Q1225 23 1028 -16Q925 -36 804 -36T587 -9T412 66T270 182T166 332Q78 499 78 683T134 1015T293 1273T537 1445T823 1508Q1141 1508 1350 1400L1276 1081Z" />
<glyph unicode="D" glyph-name="D" horiz-adv-x="1532" d="M48 85L196 128V1353L52 1391L45 1405L59 1492H704Q1022 1492 1211 1288Q1398 1085 1398 750Q1398 427 1176 211Q959 0 644 0H43L38 9L48 85ZM628 1375Q512 1375 380 1353V153Q518 130 657 130T891 164T1054
269Q1196 417 1196 694Q1196 1020 1028 1204Q873 1375 628 1375Z" />
<glyph unicode="E" glyph-name="E" horiz-adv-x="1361" d="M96 85L240 128V1360L101 1393L94 1407L108 1492H1144L1110 1188Q1073 1181 1027 1193L969 1375H429V821H836L886 963Q914 970 963 963V561Q920 554 886 561L836 702H429V117H1012L1097 360Q1131 370
1175 360L1184 0H92L87 9L96 85Z" />
<glyph unicode="F" glyph-name="F" horiz-adv-x="1361" d="M116 85L260 128V1364L121 1398L114 1411L128 1492H1204L1170 1188Q1133 1181 1087 1193L1029 1375H449V783H876L921 920Q960 926 998 920V531Q956 519 921 531L871 664H449V128L665 94L672 80L658 0H112L107
9L116 85Z" />
<glyph unicode="G" glyph-name="G" horiz-adv-x="1532" d="M127 399T103 490T78 691T103 909T176 1109T290 1274T442 1400Q618 1508 836 1508Q1038 1508 1208 1454Q1306 1422 1362 1387L1290 1083Q1250 1076 1209 1095Q1209 1127 1207 1156L1203 1212Q1201 1240
1196 1260Q1146 1328 902 1361Q829 1371 747 1371T580 1331T429 1212Q283 1039 283 747Q283 451 462 264Q566 154 702 114Q767 94 832 94T955 104T1060 132Q1147 162 1206 212V558L897 589V681H1441V600L1394 570V151Q1236 7 943 -28Q876 -36 786 -36T601 -11T427
62T283 174T173 319Z" />
<glyph unicode="H" glyph-name="H" horiz-adv-x="1535" d="M58 85L201 128V1364L62 1398L55 1411L69 1492H545L550 1483L541 1407L390 1364V815H1146V1364L1006 1398L999 1411L1014 1492H1489L1494 1483L1485 1407L1334 1364V128L1480 94L1487 80L1473 0H997L993
9L1002 85L1146 128V698H390V128L536 94L543 80L528 0H53L48 9L58 85Z" />
<glyph unicode="I" glyph-name="I" horiz-adv-x="683" d="M109 85L248 128V1364L102 1398L95 1411L109 1492H585L589 1483L579 1407L435 1364V128L587 94L594 80L579 0H104L99 9L109 85Z" />
<glyph unicode="J" glyph-name="J" horiz-adv-x="683" d="M248 1364L108 1398L102 1411L115 1492H591L596 1483L587 1407L436 1364V40Q436 -312 73 -488Q47 -462 39 -402Q120 -368 179 -266Q248 -146 248 2V1364Z" />
<glyph unicode="K" glyph-name="K" horiz-adv-x="1366" d="M90 85L233 130V1360L94 1393L87 1407L101 1492H577L582 1483L573 1402L422 1360V733L983 1367L844 1395L837 1407L849 1492H1327L1332 1483L1322 1405L1179 1355L678 823L1212 128L1352 94L1356 80L1343
0H864L856 9L866 85L972 128L560 693L422 552V128L568 94L575 80L560 0H85L80 9L90 85Z" />
<glyph unicode="L" glyph-name="L" horiz-adv-x="1194" d="M87 85L231 128V1364L90 1398L83 1411L97 1492H598L603 1483L593 1407L420 1364V117H923L1015 371Q1044 377 1092 371L1101 0H83L78 9L87 85Z" />
<glyph unicode="M" glyph-name="M" horiz-adv-x="2046" d="M121 85L274 128L330 1362L151 1393L144 1407L159 1492H516L1034 324L1510 1492H1889L1905 1480L1887 1393L1703 1362L1759 128L1927 94L1934 80L1919 0H1425L1420 9L1431 85L1573 128L1526 1226L1058
101Q1049 79 1022 63T968 47L438 1202L393 128L535 94L542 80L528 0H116L111 9L121 85Z" />
<glyph unicode="N" glyph-name="N" horiz-adv-x="1705" d="M110 85L263 128V1367L96 1398L89 1411L103 1492H433L1366 351V1362L1195 1398L1189 1411L1202 1492H1613L1618 1483L1608 1407L1483 1364V0Q1465 -36 1424 -36L381 1252V128L517 94L524 80L510 0H105L101
9L110 85Z" />
<glyph unicode="O" glyph-name="O" horiz-adv-x="1705" d="M227 281T177 416T126 685T153 922T231 1114T351 1276T506 1400Q682 1508 863 1508T1173 1451T1392 1294Q1579 1086 1579 761Q1579 423 1356 192Q1216 47 1024 -8Q928 -36 798 -36T539 22T319 180ZM331
784Q331 632 374 502T494 280Q649 94 889 94Q1108 94 1238 240Q1374 393 1374 669Q1374 994 1214 1192Q1064 1380 832 1380Q598 1380 465 1227Q331 1072 331 784Z" />
<glyph unicode="P" glyph-name="P" horiz-adv-x="1196" d="M582 583Q463 583 400 592V128L616 94L623 80L609 0H65L58 11L70 85L211 128V1364L72 1398L65 1411L79 1492H648Q881 1492 999 1376T1117 1033Q1117 810 960 690Q821 583 582 583ZM577 1375Q483 1375
400 1355V708Q442 701 536 701T699 721T815 782Q916 867 916 1033Q916 1167 834 1265Q742 1375 577 1375Z" />
<glyph unicode="Q" glyph-name="Q" horiz-adv-x="1705" d="M227 281T177 416T126 685T153 922T231 1114T351 1276T506 1400Q682 1508 863 1508T1173 1451T1392 1294Q1579 1086 1579 761Q1579 483 1421 268Q1268 61 1026 -8Q1316 -161 1599 -238Q1705 -267 1808
-278Q1808 -370 1783 -414T1738 -474Q1330 -371 994 -146Q918 -95 849 -35Q843 -36 837 -36T825 -36Q668 -36 539 22T319 180ZM331 784Q331 632 374 502T494 280Q649 94 889 94Q1108 94 1238 240Q1374 393 1374 669Q1374 994 1214 1192Q1064 1380 832 1380Q598
1380 465 1227Q331 1072 331 784Z" />
<glyph unicode="R" glyph-name="R" horiz-adv-x="1366" d="M612 641Q480 641 420 647V128L616 94L623 80L609 0H85L78 11L90 85L231 128V1364L92 1398L85 1411L99 1492H678Q1157 1492 1157 1050Q1157 888 1056 782Q968 689 813 654Q899 601 974 467Q1006 410 1036
351T1102 238Q1185 118 1295 87L1310 68L1293 0L1067 -23Q999 -13 906 171L798 394Q698 596 612 641ZM607 1375Q513 1375 420 1355V766Q468 758 564 758T730 772T850 822Q956 896 956 1060Q956 1201 869 1286Q778 1375 607 1375Z" />
<glyph unicode="S" glyph-name="S" horiz-adv-x="1196" d="M204 407Q248 412 283 393Q283 268 294 224Q378 148 504 106Q570 85 637 85T752 98T835 142Q911 207 911 337Q911 439 794 522Q742 560 675 594L538 662Q362 751 296 814T198 942T166 1093T202 1258T302
1390Q437 1508 641 1508Q855 1508 1056 1391L985 1079Q951 1073 908 1090Q908 1123 906 1153T902 1213T895 1263Q750 1378 545 1378Q442 1378 384 1314Q331 1257 331 1175T363 1046T448 960T568 887L706 817Q886 725 951 661T1049 531T1082 373T1045 205T940 74Q800
-36 569 -36Q374 -36 236 29Q174 57 134 94L204 407Z" />
<glyph unicode="T" glyph-name="T" horiz-adv-x="1362" d="M372 85L586 128V1370H400Q290 1370 249 1332Q213 1298 167 1160Q108 1160 81 1177L119 1492H1239L1280 1177Q1248 1160 1194 1160Q1148 1299 1119 1326T1054 1362T962 1370H775V128L992 85L999 72L984
0H368L363 9L372 85Z" />
<glyph unicode="U" glyph-name="U" horiz-adv-x="1532" d="M179 1364L57 1398L50 1411L64 1492H540L545 1483L534 1407L368 1364V560Q368 322 469 208T779 94Q956 94 1076 200Q1201 311 1201 499V1364L1048 1398L1041 1411L1055 1492H1477L1482 1483L1473 1407L1329
1364V492Q1329 255 1168 110Q1004 -36 733 -36Q466 -36 321 103Q179 239 179 476V1364Z" />
<glyph unicode="V" glyph-name="V" horiz-adv-x="1532" d="M179 1360L10 1393L2 1409L17 1492H541L547 1483L537 1402L401 1357L801 164L1192 1357L1049 1393L1042 1407L1056 1492H1524L1529 1483L1519 1402L1357 1360L865 23Q790 -19 678 -23L179 1360Z" />
<glyph unicode="W" glyph-name="W" horiz-adv-x="2214" d="M124 1364L-36 1398L-43 1411L-29 1492H467L472 1483L463 1407L333 1364L681 169L1047 1400Q1109 1462 1225 1466L1593 162L1956 1364L1824 1398L1816 1411L1831 1492H2252L2257 1483L2248 1407L2095
1364L1663 23Q1591 -19 1478 -23L1108 1204L753 23Q678 -19 566 -23L124 1364Z" />
<glyph unicode="X" glyph-name="X" horiz-adv-x="1362" d="M-25 9L-16 85L126 128L569 763L156 1364L17 1398L10 1411L25 1492H538L542 1483L533 1407L382 1364L697 902L996 1364L856 1398L848 1411L863 1492H1317L1322 1483L1313 1407L1164 1364L766 803L1232
128L1380 94L1387 80L1374 0H861L856 9L865 85L1007 128L639 662L293 128L441 94L448 80L434 0H-20L-25 9Z" />
<glyph unicode="Y" glyph-name="Y" horiz-adv-x="1196" d="M365 85L509 128V545L87 1364L-51 1398L-59 1411L-44 1492H469L474 1483L464 1407L314 1364L624 681L936 1357L790 1398L783 1411L797 1492H1251L1256 1483L1246 1407L1098 1364L698 559V128L844 94L851
80L837 0H361L356 9L365 85Z" />
<glyph unicode="Z" glyph-name="Z" horiz-adv-x="1359" d="M100 0Q77 26 72 85L1007 1379H307L248 1169Q204 1157 167 1164L133 1492H1250Q1255 1479 1258 1465Q1265 1431 1257 1402L343 113H1071L1129 323Q1157 330 1176 330T1212 328L1245 0H100Z" />
<glyph unicode="[" glyph-name="bracketleft" horiz-adv-x="684" d="M185 1472H486L493 1458L472 1375L345 1355V-182L488 -205L498 -224L472 -299H185V1472Z" />
<glyph unicode="\" glyph-name="backslash" horiz-adv-x="856" d="M84 1571Q125 1607 185 1607L772 -128Q711 -162 673 -162L84 1571Z" />
<glyph unicode="]" glyph-name="bracketright" horiz-adv-x="684" d="M338 -182V1355L194 1378L185 1396L210 1472H498V-299H196L189 -285L210 -202L338 -182Z" />
<glyph unicode="^" glyph-name="asciicircum" horiz-adv-x="1196" d="M539 1171Q585 1221 644 1209L1114 174Q1084 88 1028 80Q1003 76 978 88L596 929L205 88Q139 101 99 144Q81 162 72 183L539 1171Z" />
<glyph unicode="_" glyph-name="underscore" horiz-adv-x="1022" d="M1040 -250T1040 -267T1032 -314H-10Q-27 -267 -10 -220H1032Q1040 -250 1040 -267Z" />
<glyph unicode="`" glyph-name="grave" horiz-adv-x="537" d="M267 1180Q70 1301 -49 1479Q-9 1564 81 1589Q148 1467 274 1332Q313 1291 352 1256Q328 1190 267 1180Z" />
<glyph unicode="a" glyph-name="a" horiz-adv-x="1025" d="M863 144Q885 144 995 155L1006 141L983 59L707 -36L693 -21L675 115L615 66Q489 -36 408 -36T265 -8T160 67Q79 157 79 285Q79 396 138 448Q194 499 340 521T571 555T666 568V654Q666 923 462 923Q361
923 194 860Q154 889 154 946Q362 1048 517 1048Q826 1048 826 692V189Q826 144 863 144ZM257 310Q257 180 364 125Q397 108 431 108T497 118T559 142T618 172L666 202V447Q491 447 374 426T257 310Z" />
<glyph unicode="b" glyph-name="b" horiz-adv-x="1194" d="M554 -36Q369 -36 168 59V1416L8 1456L1 1470L8 1524L311 1636L327 1627V923Q497 1048 614 1048T813 1011T954 906Q1076 767 1076 549Q1076 306 932 137Q783 -36 554 -36ZM327 834V207Q389 131 498 92Q544
76 605 76T723 106T821 190Q909 306 909 485Q909 680 814 789Q721 895 579 895T327 834Z" />
<glyph unicode="c" glyph-name="c" horiz-adv-x="1024" d="M829 820Q692 935 547 935Q434 935 351 817Q269 700 269 537Q269 345 390 226Q497 120 635 120Q790 120 893 227Q949 202 949 153Q794 8 653 -28Q622 -36 592 -36Q366 -36 231 112Q102 253 102 474Q102
712 264 880Q426 1048 653 1048Q823 1048 916 980Q911 929 885 887T829 820Z" />
<glyph unicode="d" glyph-name="d" horiz-adv-x="1195" d="M634 1048Q755 1048 861 1005V1416L694 1456L683 1470L694 1524L1004 1636L1020 1627V200Q1020 179 1027 167T1051 155T1088 157T1132 162L1184 167L1196 153L1172 70L904 -23L889 -9L873 103Q764 13
664 -23Q627 -36 595 -36Q369 -36 234 112Q105 253 105 474Q105 717 250 880Q400 1048 634 1048ZM861 191V815Q800 885 698 921Q652 937 589 937T466 909T363 828Q273 719 273 537Q273 345 394 226Q501 120 627 120T861 191Z" />
<glyph unicode="e" glyph-name="e" horiz-adv-x="1025" d="M871 227Q923 206 928 153Q775 8 620 -28Q586 -36 551 -36Q341 -36 210 112Q80 257 80 474Q80 710 235 880Q306 958 399 1003T587 1048T749 1015T860 924Q948 812 948 638Q948 589 939 553Q928 528 528
528Q395 528 247 532Q249 341 370 224Q478 120 614 120T871 227ZM330 624Q630 624 768 643Q768 750 704 840Q634 937 537 937Q431 937 354 858Q271 775 252 624H330Z" />
<glyph unicode="f" glyph-name="f" horiz-adv-x="683" d="M647 1015Q652 990 652 960T629 897H375V128L586 94L590 80L578 0H80L73 9L83 85L215 128V897H57Q53 917 53 932Q53 954 67 971L215 1013V1161Q215 1366 322 1496Q437 1636 635 1636Q711 1636 798 1602Q796
1553 773 1512T724 1451Q642 1519 509 1519Q422 1519 387 1348Q375 1289 375 1206V1005Q480 1005 647 1015Z" />
<glyph unicode="g" glyph-name="g" horiz-adv-x="1194" d="M503 337Q413 286 413 238Q413 184 438 163Q484 124 604 112T818 83T973 36Q1093 -24 1093 -179Q1093 -336 954 -434Q812 -536 588 -536Q367 -536 233 -432Q118 -343 118 -231Q118 -154 170 -115L228
-63Q264 -32 316 7Q229 56 229 162Q229 225 280 266Q304 286 340 306L420 355Q250 414 197 554Q179 601 179 677T218 827T320 952Q450 1056 626 1056L898 1045Q1037 1045 1109 1074Q1136 1037 1136 1003Q1136 954 1125 926Q1104 912 1073 912T1021 918T982 932Q933
955 905 959L898 944Q972 887 994 770Q1001 737 1001 682T966 558T872 440Q746 332 576 332Q548 332 503 337ZM604 440Q654 440 695 454T767 497Q836 559 836 661Q836 787 756 869Q680 946 573 946Q470 946 404 878Q340 812 340 711Q340 590 418 514Q494 440 604
440ZM282 -200Q282 -238 302 -280T364 -356Q453 -431 609 -431Q772 -431 850 -358Q915 -298 915 -194Q915 -129 844 -102Q779 -76 647 -62Q437 -38 379 -21Q282 -88 282 -200Z" />
<glyph unicode="h" glyph-name="h" horiz-adv-x="1365" d="M743 897Q601 897 432 820V128L593 94L600 80L585 0H137L133 9L142 85L272 128V1418L114 1458L105 1470L114 1524L416 1636L432 1627V910Q643 1048 791 1048Q940 1048 1025 950Q1106 855 1106 695V128L1280
94L1287 80L1275 0H800L793 9L802 85L946 128V647Q946 897 743 897Z" />
<glyph unicode="i" glyph-name="i" horiz-adv-x="682" d="M415 1231T392 1220T347 1209T303 1218T264 1244Q225 1279 225 1312T234 1366T260 1406Q296 1446 344 1446Q388 1446 418 1420Q470 1375 470 1333Q470 1288 443 1260ZM140 85L272 128V789L133 848L122
860L133 914L415 1029L432 1020V128L592 94L596 80L585 0H137L130 9L140 85Z" />
<glyph unicode="j" glyph-name="j" horiz-adv-x="684" d="M436 1231T414 1220T368 1209T324 1218T284 1244Q245 1278 245 1311T254 1366T279 1406Q315 1446 363 1446Q408 1446 436 1420Q488 1375 488 1333Q488 1288 462 1260ZM290 789L153 848L144 860L153 914L434
1029L450 1020V-14Q450 -227 333 -370Q256 -465 116 -535Q86 -505 83 -450Q162 -417 222 -313Q290 -195 290 -45V789Z" />
<glyph unicode="k" glyph-name="k" horiz-adv-x="1196" d="M125 85L255 128V1416L97 1456L88 1470L97 1524L399 1636L415 1627V544L803 892L662 921L655 933L667 1013H1117L1122 1003L1112 930L969 883L632 605L1055 128L1194 94L1199 80L1188 0H740L733 9L743
85L848 128L516 511L415 427V128L576 94L583 80L568 0H120L116 9L125 85Z" />
<glyph unicode="l" glyph-name="l" horiz-adv-x="684" d="M135 85L265 128V1416L108 1456L97 1470L108 1524L409 1636L425 1627V128L585 94L593 80L578 0H131L126 9L135 85Z" />
<glyph unicode="m" glyph-name="m" horiz-adv-x="2044" d="M766 897Q627 897 458 820V128L618 94L622 80L611 0H163L156 9L166 85L298 128V796L159 857L149 869L159 923L422 1029L439 1020V897Q669 1048 815 1048Q1010 1048 1089 897Q1099 907 1141 931L1220 974Q1359
1048 1450 1048T1601 1024T1700 956Q1781 867 1781 706V128L1955 94L1963 80L1950 0H1473L1469 9L1478 85L1621 128V659Q1621 897 1419 897Q1273 897 1117 825Q1132 752 1132 706V128L1291 94L1298 80L1285 0H822L818 9L827 85L971 128V659Q971 897 766 897Z" />
<glyph unicode="n" glyph-name="n" horiz-adv-x="1365" d="M739 897Q600 897 431 820V128L591 94L595 80L584 0H136L129 9L139 85L271 128V796L132 857L122 869L132 923L395 1029L412 1020V897Q642 1048 788 1048Q938 1048 1022 956Q1105 866 1105 706V128L1278
94L1283 80L1271 0H795L791 9L800 85L944 128V659Q944 897 739 897Z" />
<glyph unicode="o" glyph-name="o" horiz-adv-x="1195" d="M88 490Q88 603 130 706T246 885Q403 1048 619 1048Q842 1048 977 898Q1107 754 1107 526Q1107 288 951 124Q798 -36 578 -36Q361 -36 222 117Q88 265 88 490ZM310 794T288 721T266 546T298 358T381 209Q489
76 622 76Q842 76 906 284Q929 357 929 462T897 655T814 805T702 902T575 937T451 914T351 842Z" />
<glyph unicode="p" glyph-name="p" horiz-adv-x="1196" d="M887 57T791 11T588 -36T352 0V-389L552 -424L557 -438L546 -519H58L51 -506L60 -434L193 -389V796L53 860L44 872L53 926L317 1029L333 1020V912Q504 1048 654 1048Q856 1048 980 906Q1101 767 1101
549Q1101 305 956 137Q887 57 791 11ZM565 895Q464 895 352 836V207Q415 130 521 92Q568 76 629 76T748 106T846 190Q934 306 934 485Q934 680 838 789Q746 895 565 895Z" />
<glyph unicode="q" glyph-name="q" horiz-adv-x="1196" d="M857 87Q687 -36 583 -36T388 3T234 112Q105 253 105 474Q105 717 250 880Q400 1048 631 1048Q788 1048 930 994L1001 1041L1017 1032V-389L1156 -424L1163 -438L1152 -519H662L657 -506L666 -434L857
-389V87ZM857 182V818Q797 886 694 922Q650 937 588 937T466 909T363 828Q273 719 273 537Q273 345 394 226Q501 120 627 120T857 182Z" />
<glyph unicode="r" glyph-name="r" horiz-adv-x="853" d="M770 813Q713 881 636 881Q570 881 477 750Q437 693 400 620V128L651 94L655 80L644 0H106L99 9L108 85L241 128V796L101 857L92 869L101 923L365 1029L381 1020L400 761Q485 980 627 1036Q659 1048 718
1048T839 1015Q835 881 770 813Z" />
<glyph unicode="s" glyph-name="s" horiz-adv-x="854" d="M663 845Q535 944 402 944Q313 944 282 858Q272 833 272 795T293 723T350 661T432 612L524 567Q648 507 691 464Q777 376 777 259Q777 128 667 44Q560 -36 400 -36Q266 -36 192 -9T87 40Q94 132 160 193Q258
109 371 78Q410 68 446 68T515 76T572 102Q627 140 627 200T606 295T549 355T468 402L374 444Q253 499 209 544Q122 633 122 753Q122 879 226 964Q327 1048 478 1048Q620 1048 744 1003Q737 957 713 914T663 845Z" />
<glyph unicode="t" glyph-name="t" horiz-adv-x="853" d="M500 117Q610 117 729 164Q765 142 769 94Q593 -36 477 -36Q341 -36 270 54Q208 133 208 268V897H77Q69 914 69 931Q69 952 84 971L230 1022L303 1292H371V1005Q482 1005 719 1015Q719 1010 720 1005L721
980Q721 925 697 897H371V276Q371 209 397 176Q442 117 500 117Z" />
<glyph unicode="u" glyph-name="u" horiz-adv-x="1196" d="M468 133Q511 115 592 115T827 205V798L685 860L679 872L685 926L968 1029L987 1022V200Q987 179 994 167T1018 155T1056 157L1099 161Q1125 164 1154 167L1166 153L1142 70L869 -23L855 -9L843 115L834
117L786 82Q707 25 637 -5T507 -36T385 -12T280 58Q193 149 193 308V825L94 874L85 885L94 940L337 1029L353 1020V353Q353 180 468 133Z" />
<glyph unicode="v" glyph-name="v" horiz-adv-x="1196" d="M173 892L58 921L50 933L63 1013H484L491 1003L481 930L371 892L630 191L893 895L755 921L750 933L762 1013H1139L1146 1003L1131 921L1015 892L651 18Q635 -14 550 -23L173 892Z" />
<glyph unicode="w" glyph-name="w" horiz-adv-x="1532" d="M64 892L-21 921L-28 933L-17 1013H374L382 1003L372 930L262 892L468 189L738 959Q761 982 794 991T846 1003L1107 195L1333 895L1190 921L1183 933L1194 1013H1564L1568 1003L1555 921L1458 892L1136
18Q1116 -23 1034 -23L761 726L489 18Q474 -6 448 -13T390 -23L64 892Z" />
<glyph unicode="x" glyph-name="x" horiz-adv-x="1194" d="M72 92L198 117L532 523L236 892L118 921L114 933L125 1013H546L554 1003L544 930L443 892L631 627L831 892L709 921L701 933L716 1013H1107L1114 1003L1100 921L970 892L689 546L1022 117L1132 94L1139
80L1127 0H704L698 9L709 85L810 120L591 442L343 117L471 94L478 80L466 0H69L62 9L72 92Z" />
<glyph unicode="y" glyph-name="y" horiz-adv-x="1194" d="M266 -450Q452 -169 540 5L184 892L69 921L62 933L73 1013H489L496 1003L486 930L375 892L628 162H637Q700 317 749 450L833 683Q873 799 903 895L759 921L754 933L766 1013H1143L1150 1003L1136 921L1030
892L734 153Q681 24 624 -100L521 -321L414 -538Q358 -538 306 -494Q283 -475 266 -450Z" />
<glyph unicode="z" glyph-name="z" horiz-adv-x="1024" d="M927 1013Q945 981 945 935L320 94H771L835 299Q851 306 869 306T905 304L938 0H111Q90 42 97 83L716 919H311L246 714Q218 700 174 708L142 1013H927Z" />
<glyph unicode="{" glyph-name="braceleft" horiz-adv-x="684" d="M245 706Q415 625 415 485Q415 415 401 344Q374 207 374 165T385 81T412 6Q446 -62 482 -85Q469 -135 435 -146Q351 -104 284 -19Q208 78 208 177Q208 236 226 313Q262 462 262 505T244 576Q211
627 149 681Q141 696 141 710Q141 726 149 742Q262 837 262 891T254 989T235 1074Q208 1187 208 1243T229 1349T284 1442Q347 1523 435 1569Q450 1564 463 1548T478 1508Q419 1463 386 1342Q374 1301 374 1261T380 1185L394 1112Q415 1006 415 945T396 848T349
788T293 748L245 721V706Z" />
<glyph unicode="|" glyph-name="bar" horiz-adv-x="511" d="M197 1766H314V-471H197V1766Z" />
<glyph unicode="}" glyph-name="braceright" horiz-adv-x="684" d="M468 706Q298 625 298 485Q298 415 312 344Q339 207 339 165T328 81T301 6Q267 -62 231 -85Q244 -135 278 -146Q362 -104 429 -19Q505 78 505 177Q505 236 487 313Q451 462 451 505T469 576Q502
627 564 681Q572 696 572 710Q572 726 564 742Q451 837 451 891T459 989T478 1074Q505 1187 505 1243T484 1349T429 1442Q366 1523 278 1569Q263 1564 250 1548T235 1508Q294 1463 327 1342Q339 1301 339 1261T333 1185L319 1112Q298 1006 298 945T317 848T364
788T420 748L468 721V706Z" />
<glyph unicode="~" glyph-name="asciitilde" horiz-adv-x="1196" d="M405 576Q317 576 191 450Q155 461 138 503Q133 514 132 523Q281 694 447 694Q496 694 539 675T624 632T704 590T784 570Q898 570 1003 693Q1053 674 1063 620Q936 451 753 451Q700 451 657
470T573 513T493 556T405 576Z" />
<glyph unicode="&#xa1;" glyph-name="exclamdown" horiz-adv-x="512" d="M156 -248Q208 -258 246 -258T345 -248Q340 22 329 235T310 587T291 906Q272 913 251 913Q228 913 210 906Q166 239 156 -248ZM155 1221T144 1200T133 1157T142 1113T167 1074Q203 1034
237 1034T294 1043T336 1068Q378 1103 378 1135T368 1190T341 1230Q302 1271 253 1271Q211 1271 183 1246Z" />
<glyph unicode="&#xa2;" glyph-name="cent" horiz-adv-x="1024" d="M584 122Q604 120 644 120Q725 120 812 173Q851 197 879 227Q936 202 936 153Q780 11 641 -28Q610 -36 580 -36L574 -308Q514 -319 466 -304L478 -28Q297 3 190 144Q87 279 87 474Q87 677 210
835Q329 989 516 1034L523 1326Q577 1341 631 1321L618 1047Q623 1048 628 1048H639Q809 1048 902 980Q897 929 871 887T815 820Q728 897 612 925L594 558L584 122ZM507 584L514 934Q406 924 331 808Q255 691 255 537Q255 396 324 288Q384 195 487 149L507 584Z"
/>
<glyph unicode="&#xa3;" glyph-name="sterling" horiz-adv-x="1365" d="M1198 254Q1255 234 1259 195Q1196 58 1080 -6Q1014 -43 952 -43T840 -37T736 -22Q604 0 546 0T438 -4T336 -15L233 -27Q181 -33 133 -36Q93 -15 108 47Q297 75 370 241Q395 298 404 373L439
688H281L279 719Q283 737 299 761L452 803L474 1030Q513 1359 751 1469Q831 1506 904 1506Q1031 1506 1117 1471Q1103 1372 1030 1320Q957 1389 833 1389Q744 1389 692 1218Q674 1158 665 1075L637 796Q774 796 951 805Q955 785 953 770Q953 725 920 688H625L595
416Q572 233 434 117L439 103L476 120Q560 160 610 160T704 153T794 136Q918 113 972 113Q1099 113 1198 254Z" />
<glyph unicode="&#xa4;" glyph-name="currency" horiz-adv-x="1362" d="M961 158Q838 52 676 52T400 158Q348 93 321 61L266 -2Q238 -33 210 -61L182 -40Q141 -8 115 33Q145 63 178 92Q261 165 292 190L340 228Q264 341 264 493T352 770Q338 780 312 801L184 910Q148
942 115 975L136 1002Q164 1040 210 1069Q241 1038 272 1004Q352 912 375 882L410 838Q539 961 703 961T975 869Q1096 1013 1152 1069L1180 1048Q1207 1027 1224 1005L1246 975Q1176 908 1143 880Q1065 814 1042 796Q1123 680 1123 516T1024 225Q1182 97 1246 33L1224
6Q1202 -24 1180 -40L1152 -61Q1123 -33 1095 -2L1042 59Q1016 88 996 114L961 158ZM446 678Q428 619 428 538T453 388T520 268Q606 162 713 162Q889 162 940 328Q958 387 958 471T932 625T866 746Q781 850 680 850Q497 850 446 678Z" />
<glyph unicode="&#xa5;" glyph-name="yen" horiz-adv-x="1532" d="M865 414Q1054 414 1252 427Q1260 396 1260 372T1252 317L1127 319Q1071 320 1003 320T865 321V128L1011 94L1018 80L1004 0H528L523 9L532 85L676 128V321Q504 318 264 308Q256 331 256 362T264
416Q333 415 399 415T537 414H676V578L670 589Q662 589 264 577Q256 600 256 631T264 685L380 683Q482 681 621 681L254 1364L116 1398L108 1411L123 1492H636L641 1483L631 1407L481 1364L791 711L1103 1357L957 1398L950 1411L964 1492H1418L1423 1483L1413 1407L1265
1364L910 681Q973 682 1034 684L1144 689L1252 695Q1260 664 1260 641T1252 586L865 589V414Z" />
<glyph unicode="&#xa6;" glyph-name="brokenbar" horiz-adv-x="511" d="M197 1766H314V746H197V1766ZM197 596H314V-471H197V596Z" />
<glyph unicode="&#xa7;" glyph-name="section" horiz-adv-x="1024" d="M765 260Q860 165 860 54Q860 -176 634 -240Q562 -261 480 -261Q284 -261 143 -155Q150 -56 215 9Q309 -99 442 -139Q488 -153 531 -153T604 -144T658 -116Q705 -74 705 9Q705 120 526 234L422
302Q288 388 237 446Q138 562 138 685Q138 844 260 928Q170 1022 170 1133Q170 1273 282 1362Q389 1449 562 1449T837 1347Q830 1248 764 1182Q631 1340 505 1340Q386 1340 341 1248Q326 1218 326 1175T350 1092T413 1018T503 948L606 880Q737 791 787 732Q885
618 885 497Q885 337 765 260ZM313 879Q274 833 274 765T294 654T348 574T426 504T518 440L616 376Q665 344 708 310Q745 357 745 423T725 532T671 612T593 682T501 748L404 812Q355 844 313 879Z" />
<glyph unicode="&#xa8;" glyph-name="dieresis" horiz-adv-x="784" d="M670 1231T648 1220T603 1208T559 1217T520 1242Q479 1278 479 1311T488 1366T513 1406Q549 1446 597 1446Q642 1446 671 1422Q724 1377 724 1333Q724 1288 697 1260ZM251 1231T228 1220T183
1208T139 1217T100 1242Q60 1277 60 1310T69 1366T94 1406Q130 1446 178 1446Q223 1446 252 1422Q305 1377 305 1333Q305 1288 278 1260Z" />
<glyph unicode="&#xa9;" glyph-name="copyright" horiz-adv-x="1877" d="M131 433T105 531T78 761T136 1034T298 1280T544 1447T825 1508T1065 1480T1251 1402T1406 1281T1524 1124Q1625 947 1625 735Q1625 415 1406 192Q1265 48 1066 -8Q965 -36 854 -36T641
-8T454 70T299 191T180 347ZM202 735Q202 449 392 256Q581 63 854 63Q991 63 1110 114T1318 256Q1508 449 1508 735Q1508 1022 1318 1216Q1230 1306 1111 1357T854 1409Q581 1409 392 1216Q202 1022 202 735ZM1178 377Q1047 299 852 299Q663 299 544 422Q431 539
431 711Q431 910 558 1044Q688 1182 885 1182Q1056 1182 1178 1121L1133 937Q1107 937 1088 944Q1088 1008 1079 1041Q1007 1102 848 1102Q737 1102 660 1011Q577 914 577 756Q577 579 678 471Q768 375 897 375Q973 375 1020 400T1092 445Q1094 456 1095 474L1097
507Q1098 525 1099 546Q1126 555 1149 555L1178 377Z" />
<glyph unicode="&#xaa;" glyph-name="ordfeminine" horiz-adv-x="853" d="M194 1260Q330 1326 431 1326Q632 1326 632 1107V793Q632 766 642 766Q676 766 696 768T735 773L744 761L731 716L540 650L528 667L517 733L482 704Q417 654 363 654T268 671T200 718Q146
774 146 852Q146 921 184 954Q222 986 321 1000L439 1018Q496 1029 509 1029V1083Q509 1248 396 1248Q355 1248 308 1234L229 1209Q194 1227 194 1260ZM321 765T339 755T377 744T414 750T450 765Q487 784 513 803H509V953Q329 953 298 919Q281 901 281 870T288
819T308 782Z" />
<glyph unicode="&#xab;" glyph-name="guillemotleft" horiz-adv-x="1192" d="M66 553Q61 594 83 624L513 991Q576 974 586 906L254 586L593 254Q586 227 567 204T526 169L66 553ZM556 553Q551 594 573 624L1003 991Q1066 974 1076 906L744 586L1083 254Q1076 227
1057 204T1016 169L556 553Z" />
<glyph unicode="&#xac;" glyph-name="logicalnot" horiz-adv-x="1194" d="M206 532Q189 579 206 627H996V243Q936 227 880 227V532H206Z" />
<glyph unicode="&#xad;" glyph-name="uni00AD" horiz-adv-x="650" d="M94 506Q73 568 108 624H555Q569 566 542 506H94Z" />
<glyph unicode="&#xae;" glyph-name="registered" horiz-adv-x="860" d="M430 944Q369 944 317 966T228 1027Q148 1108 148 1225Q148 1343 228 1424Q309 1508 430 1508T632 1424Q712 1343 712 1225Q712 1108 632 1027Q551 944 430 944ZM430 980Q531 980 599 1050T667
1225Q667 1329 599 1400Q531 1472 430 1472Q331 1472 262 1401T192 1225Q192 1121 262 1050Q330 980 430 980ZM440 1394Q550 1394 550 1303Q550 1230 470 1213Q488 1200 499 1181L520 1144Q547 1096 579 1086L583 1083L579 1067L527 1063Q502 1076 484 1113Q447
1188 426 1211H381V1095L430 1086V1067H303L300 1069L305 1086L336 1095V1366L305 1373L303 1375L307 1394H440ZM498 1334T479 1351T432 1368T381 1364V1236L415 1234Q453 1234 475 1248T498 1298Z" />
<glyph unicode="&#xaf;" glyph-name="overscore" horiz-adv-x="681" d="M29 1209Q8 1271 43 1326H630Q645 1264 616 1209H29Z" />
<glyph unicode="&#xb0;" glyph-name="degree" horiz-adv-x="853" d="M424 1013Q372 1013 326 1032T246 1086Q172 1158 172 1260Q172 1360 246 1434T424 1508Q529 1508 605 1434Q680 1361 680 1260Q680 1157 605 1086Q529 1013 424 1013ZM345 1124T371 1113T427
1102T483 1114T530 1148Q572 1195 572 1260Q572 1325 528 1371T422 1418Q362 1418 320 1370Q280 1325 280 1275T292 1195T324 1145Z" />
<glyph unicode="&#xb1;" glyph-name="plusminus" horiz-adv-x="1194" d="M1044 740T1044 723T1034 676H651V330Q621 320 599 320T546 330V676H163Q145 722 163 770H546V1155Q569 1163 598 1163T651 1155V770H1034Q1044 740 1044 723ZM1039 206T1039 189T1029 141H159Q139
188 159 236H1029Q1039 206 1039 189Z" />
<glyph unicode="&#xb2;" glyph-name="twosuperior" horiz-adv-x="854" d="M666 923Q666 930 685 930Q715 930 731 926L749 711H145Q115 724 115 744Q115 766 122 777Q457 1009 513 1166Q529 1210 529 1260T492 1353T383 1396T209 1314Q160 1338 158 1378Q231 1447
310 1477T449 1508T554 1493T631 1448Q697 1390 697 1305T670 1159T590 1040Q499 939 280 793Q624 793 637 827L666 923Z" />
<glyph unicode="&#xb3;" glyph-name="threesuperior" horiz-adv-x="684" d="M558 1328Q558 1226 393 1144Q565 1131 587 1009Q593 976 593 933T568 841T500 756Q408 678 278 678Q153 678 66 758Q82 804 148 850Q226 751 321 751Q363 751 396 806Q427 860 427 910T417
992T390 1044Q356 1086 314 1086T222 1074Q195 1096 195 1135Q321 1175 362 1236Q382 1264 382 1295T376 1348T356 1385Q326 1420 271 1420Q200 1420 132 1359Q100 1373 87 1416Q175 1508 317 1508Q424 1508 492 1454Q558 1404 558 1328Z" />
<glyph unicode="&#xb4;" glyph-name="acute" horiz-adv-x="537" d="M268 1180Q207 1190 183 1256Q357 1412 454 1589Q544 1564 584 1479Q503 1357 362 1246Q317 1210 268 1180Z" />
<glyph unicode="&#xb5;" glyph-name="mu" horiz-adv-x="1196" d="M521 -36Q379 -36 276 72L266 68Q293 -306 353 -479Q303 -536 202 -528Q193 -331 191 -183T188 68T186 308V825L87 874L78 885L87 940L330 1029L346 1020V353Q346 180 460 133Q504 115 585 115T820
205V798L678 860L672 872L678 926L961 1029L980 1022V200Q980 179 987 167T1011 155T1048 157L1092 161Q1118 164 1147 167L1159 153L1135 70L862 -23L848 -9L836 115L827 117L779 82Q700 25 630 -5T521 -36Z" />
<glyph unicode="&#xb6;" glyph-name="paragraph" horiz-adv-x="1366" d="M678 570Q230 570 134 862Q112 928 112 1036T163 1232T298 1374Q452 1472 698 1472H1298L1303 1463L1292 1387L1150 1344V-377Q1121 -424 1006 -424V1297L822 1267V-377Q789 -424 678 -424V570Z" />
<glyph unicode="&#xb7;" glyph-name="middot" horiz-adv-x="512" d="M155 510T144 531T133 574T142 618T167 657Q203 697 237 697T294 688T336 663Q378 628 378 596T368 541T340 501Q301 460 252 460Q210 460 183 485Z" />
<glyph unicode="&#xb8;" glyph-name="cedilla" horiz-adv-x="562" d="M165 -218Q140 -204 119 -163L196 17L342 3L299 -121Q348 -103 385 -106Q458 -111 495 -160T529 -276T492 -385T406 -462Q298 -530 157 -530Q146 -517 146 -489T147 -442Q246 -438 302 -398Q380
-345 360 -255Q344 -186 272 -186T165 -218Z" />
<glyph unicode="&#xb9;" glyph-name="onesuperior" horiz-adv-x="682" d="M117 721L126 784L283 811V1364L119 1352L114 1359L121 1413L447 1508L456 1501L440 1394V811L590 791L595 782L588 711H121L117 721Z" />
<glyph unicode="&#xba;" glyph-name="ordmasculine" horiz-adv-x="854" d="M414 654Q343 654 285 679T186 748Q100 840 100 977Q100 1122 202 1225Q301 1326 441 1326Q586 1326 671 1234Q754 1143 754 1003Q754 855 654 754Q556 654 414 654ZM443 723Q619 723
619 961Q619 1089 552 1177Q491 1258 412 1258T283 1200T234 1015Q234 892 301 805Q364 723 443 723Z" />
<glyph unicode="&#xbb;" glyph-name="guillemotright" horiz-adv-x="1192" d="M636 584Q641 543 619 513L189 146Q126 163 116 231L448 551L109 883Q116 910 135 933T176 968L636 584ZM1126 584Q1131 543 1109 513L679 146Q616 163 606 231L938 551L599 883Q606
910 625 933T666 968L1126 584Z" />
<glyph unicode="&#xbc;" glyph-name="onequarter" horiz-adv-x="2047" d="M1009 2Q979 32 973 78Q1143 254 1323 546Q1381 640 1432 739Q1479 722 1512 698T1562 659Q1538 620 1502 570Q1502 570 1336 350Q1336 350 1110 70L1477 80V360Q1518 384 1623 405V85Q1673
88 1800 103Q1803 39 1782 2H1623V-160Q1558 -196 1477 -201V2H1009ZM1359 1636Q1379 1633 1403 1618T1439 1585L483 -125Q436 -116 398 -78L1359 1636ZM117 721L126 784L283 811V1364L119 1352L114 1359L121 1413L447 1508L456 1501L440 1394V811L590 791L595
782L588 711H121L117 721Z" />
<glyph unicode="&#xbd;" glyph-name="onehalf" horiz-adv-x="2047" d="M1359 1636Q1379 1633 1403 1618T1439 1585L483 -125Q435 -115 398 -78L1359 1636ZM117 721L126 784L283 811V1364L119 1352L114 1359L121 1413L447 1508L456 1501L440 1394V811L590 791L595
782L588 711H121L117 721ZM1695 213Q1695 220 1714 220Q1744 220 1760 216L1778 1H1174Q1144 14 1144 34Q1144 56 1151 67Q1486 299 1542 456Q1558 500 1558 550T1521 643T1412 686T1238 604Q1189 628 1187 668Q1260 737 1339 767T1478 798T1583 783T1660 738Q1726
680 1726 595T1699 449T1619 330Q1528 229 1309 83Q1653 83 1666 117L1695 213Z" />
<glyph unicode="&#xbe;" glyph-name="threequarters" horiz-adv-x="2047" d="M629 1328Q629 1227 463 1144Q634 1131 658 1009Q665 976 665 933T640 841T572 756Q479 678 348 678Q221 678 137 758Q153 805 218 850Q296 751 391 751Q434 751 466 806Q497 861 497
911T487 992T460 1044Q428 1086 386 1086T292 1074Q266 1095 266 1135Q390 1173 432 1236Q452 1264 452 1295T446 1348T426 1385Q397 1420 342 1420Q267 1420 202 1359Q171 1373 158 1416Q250 1508 389 1508Q495 1508 564 1454Q629 1404 629 1328ZM1009 2Q979 32
973 78Q1143 254 1323 546Q1381 640 1432 739Q1479 722 1512 698T1562 659Q1538 620 1502 570L1336 350L1110 70L1477 80V360Q1518 384 1623 405V85Q1673 88 1800 103Q1803 39 1782 2H1623V-160Q1558 -196 1477 -201V2H1009ZM1359 1636Q1379 1633 1403 1618T1439
1585L483 -125Q436 -116 398 -78L1359 1636Z" />
<glyph unicode="&#xbf;" glyph-name="questiondown" horiz-adv-x="1023" d="M537 408T548 446T559 546T540 685Q577 715 625 699Q677 568 677 488T659 357T610 265Q559 196 446 113Q376 61 351 20Q309 -53 309 -117T320 -223T355 -294Q405 -355 483 -355Q602 -355
710 -274Q757 -238 794 -193Q867 -229 896 -305Q909 -338 911 -373Q834 -430 741 -455T561 -481T395 -451T257 -367Q133 -252 133 -68Q133 94 283 197Q324 225 370 253T453 312T513 375ZM671 998T682 977T693 934T684 890T659 851Q623 811 589 811T533 820T491
845Q448 880 448 912T458 967T485 1007Q524 1048 574 1048Q616 1048 643 1023Z" />
<glyph unicode="&#xc0;" glyph-name="Agrave" horiz-adv-x="1535" d="M34 85L187 128L673 1480Q723 1506 857 1528L1356 128L1516 94L1523 80L1509 0H1030L1026 9L1035 85L1164 128L1021 533H455L319 128L455 94L462 80L448 0H30L24 9L34 85ZM979 651L731 1317L496
651H979ZM696 2019Q789 1844 967 1685Q953 1647 933 1631T882 1609Q741 1696 627 1830Q592 1870 567 1909Q605 1994 696 2019Z" />
<glyph unicode="&#xc1;" glyph-name="Aacute" horiz-adv-x="1535" d="M34 85L187 128L673 1480Q723 1506 857 1528L1356 128L1516 94L1523 80L1509 0H1030L1026 9L1035 85L1164 128L1021 533H455L319 128L455 94L462 80L448 0H30L24 9L34 85ZM979 651L731 1317L496
651H979ZM651 1609Q621 1615 601 1631T567 1685Q687 1793 783 1932Q814 1976 837 2019Q927 1994 967 1909Q884 1785 745 1675Q700 1639 651 1609Z" />
<glyph unicode="&#xc2;" glyph-name="Acircumflex" horiz-adv-x="1535" d="M34 85L187 128L673 1480Q723 1506 857 1528L1356 128L1516 94L1523 80L1509 0H1030L1026 9L1035 85L1164 128L1021 533H455L319 128L455 94L462 80L448 0H30L24 9L34 85ZM979 651L731
1317L496 651H979ZM477 1577Q447 1588 434 1609T410 1649Q424 1661 451 1690Q528 1778 566 1826L680 1970Q700 1996 705 2004Q775 2017 846 2004Q854 1990 877 1960L1098 1678Q1119 1652 1125 1646Q1108 1605 1079 1589Q1067 1583 1051 1577Q970 1635 845 1786L790
1853H765Q741 1824 705 1785L627 1706Q529 1609 477 1577Z" />
<glyph unicode="&#xc3;" glyph-name="Atilde" horiz-adv-x="1535" d="M34 85L187 128L673 1480Q723 1506 857 1528L1356 128L1516 94L1523 80L1509 0H1030L1026 9L1035 85L1164 128L1021 533H455L319 128L455 94L462 80L448 0H30L24 9L34 85ZM979 651L731 1317L496
651H979ZM884 1874Q954 1874 1064 1988Q1103 1967 1117 1944T1132 1912Q973 1728 875 1728Q828 1728 778 1759T703 1805T649 1820Q603 1820 552 1780T473 1710Q437 1726 412 1765Q405 1776 404 1785Q563 1966 660 1966Q707 1966 755 1935T829 1889T884 1874Z" />
<glyph unicode="&#xc4;" glyph-name="Adieresis" horiz-adv-x="1535" d="M34 85L187 128L673 1480Q723 1506 857 1528L1356 128L1516 94L1523 80L1509 0H1030L1026 9L1035 85L1164 128L1021 533H455L319 128L455 94L462 80L448 0H30L24 9L34 85ZM979 651L731 1317L496
651H979ZM1026 1723T1003 1712T957 1700T913 1709T874 1736Q835 1773 835 1805T844 1859T869 1899Q905 1939 939 1939T996 1930T1037 1906Q1080 1870 1080 1838T1070 1783T1043 1742ZM647 1723T624 1712T579 1700T535 1709T495 1736Q455 1774 455 1806T464 1859T489
1899Q525 1939 574 1939Q619 1939 648 1914Q700 1869 700 1826Q700 1782 674 1753Z" />
<glyph unicode="&#xc5;" glyph-name="Aring" horiz-adv-x="1535" d="M34 85L187 128L673 1480Q723 1506 857 1528L1356 128L1516 94L1523 80L1509 0H1030L1026 9L1035 85L1164 128L1021 533H455L319 128L455 94L462 80L448 0H30L24 9L34 85ZM979 651L731 1317L496
651H979ZM761 1597Q718 1597 680 1613T613 1657Q552 1716 552 1806Q552 1894 621 1960Q688 2022 778 2022Q866 2022 924 1966T983 1822Q983 1724 915 1660Q849 1597 761 1597ZM765 1932Q670 1932 670 1824Q670 1764 695 1735Q736 1687 776 1687Q864 1687 864 1795Q864
1855 840 1884Q800 1932 765 1932Z" />
<glyph unicode="&#xc6;" glyph-name="AE" horiz-adv-x="2052" d="M80 85L233 128L961 1376L890 1393L883 1407L897 1492H1953L1919 1188Q1880 1181 1837 1193L1778 1375H1218V821H1665L1715 963Q1743 970 1793 963V561Q1750 554 1715 561L1665 702H1218V117H1802L1886
360Q1920 370 1964 360L1973 0H881L876 9L885 85L1029 128V513H593L370 128L506 94L513 80L499 0H76L70 9L80 85ZM1029 631V1264L662 631H1029Z" />
<glyph unicode="&#xc7;" glyph-name="Ccedilla" horiz-adv-x="1537" d="M703 -218Q678 -204 657 -163L713 -32Q425 -5 247 208Q78 410 78 695Q78 867 134 1015T293 1273T537 1445T823 1508Q1141 1508 1350 1400L1276 1081Q1220 1081 1189 1092Q1189 1220 1178
1275Q1107 1326 990 1348T768 1371T576 1332T424 1217Q283 1052 283 776Q283 448 461 260Q620 92 852 92Q1048 92 1196 204Q1209 249 1213 398Q1227 403 1242 406L1269 410Q1283 412 1297 412L1352 99Q1250 38 1116 5T867 -34L837 -121Q886 -103 923 -106Q996 -111
1033 -160T1067 -276T1030 -385T944 -462Q836 -530 695 -530Q684 -517 684 -489T685 -442Q784 -438 840 -398Q918 -345 898 -255Q882 -186 810 -186T703 -218Z" />
<glyph unicode="&#xc8;" glyph-name="Egrave" horiz-adv-x="1361" d="M96 85L240 128V1360L101 1393L94 1407L108 1492H1144L1110 1188Q1073 1181 1027 1193L969 1375H429V821H836L886 963Q914 970 963 963V561Q920 554 886 561L836 702H429V117H1012L1097 360Q1131
370 1175 360L1184 0H92L87 9L96 85ZM645 2019Q738 1844 916 1685Q902 1647 882 1631T831 1609Q690 1696 576 1830Q541 1870 516 1909Q554 1994 645 2019Z" />
<glyph unicode="&#xc9;" glyph-name="Eacute" horiz-adv-x="1361" d="M96 85L240 128V1360L101 1393L94 1407L108 1492H1144L1110 1188Q1073 1181 1027 1193L969 1375H429V821H836L886 963Q914 970 963 963V561Q920 554 886 561L836 702H429V117H1012L1097 360Q1131
370 1175 360L1184 0H92L87 9L96 85ZM600 1609Q570 1615 550 1631T516 1685Q636 1793 732 1932Q763 1976 786 2019Q876 1994 916 1909Q833 1785 694 1675Q649 1639 600 1609Z" />
<glyph unicode="&#xca;" glyph-name="Ecircumflex" horiz-adv-x="1361" d="M96 85L240 128V1360L101 1393L94 1407L108 1492H1144L1110 1188Q1073 1181 1027 1193L969 1375H429V821H836L886 963Q914 970 963 963V561Q920 554 886 561L836 702H429V117H1012L1097
360Q1131 370 1175 360L1184 0H92L87 9L96 85ZM426 1577Q396 1588 383 1609T359 1649Q373 1661 400 1690Q477 1778 515 1826L629 1970Q649 1996 654 2004Q724 2017 795 2004Q803 1990 826 1960L1047 1678Q1068 1652 1074 1646Q1057 1605 1028 1589Q1016 1583 1000
1577Q919 1635 794 1786L739 1853H714Q690 1824 654 1785L576 1706Q478 1609 426 1577Z" />
<glyph unicode="&#xcb;" glyph-name="Edieresis" horiz-adv-x="1361" d="M96 85L240 128V1360L101 1393L94 1407L108 1492H1144L1110 1188Q1073 1181 1027 1193L969 1375H429V821H836L886 963Q914 970 963 963V561Q920 554 886 561L836 702H429V117H1012L1097
360Q1131 370 1175 360L1184 0H92L87 9L96 85ZM975 1723T952 1712T906 1700T862 1709T823 1736Q784 1773 784 1805T793 1859T818 1899Q854 1939 888 1939T945 1930T986 1906Q1029 1870 1029 1838T1019 1783T992 1742ZM596 1723T573 1712T528 1700T484 1709T444
1736Q404 1774 404 1806T413 1859T438 1899Q474 1939 523 1939Q568 1939 597 1914Q649 1869 649 1826Q649 1782 623 1753Z" />
<glyph unicode="&#xcc;" glyph-name="Igrave" horiz-adv-x="683" d="M109 85L248 128V1364L102 1398L95 1411L109 1492H585L589 1483L579 1407L435 1364V128L587 94L594 80L579 0H104L99 9L109 85ZM270 2019Q363 1844 541 1685Q527 1647 507 1631T456 1609Q315
1696 201 1830Q166 1870 141 1909Q179 1994 270 2019Z" />
<glyph unicode="&#xcd;" glyph-name="Iacute" horiz-adv-x="683" d="M109 85L248 128V1364L102 1398L95 1411L109 1492H585L589 1483L579 1407L435 1364V128L587 94L594 80L579 0H104L99 9L109 85ZM225 1609Q195 1615 175 1631T141 1685Q261 1793 357 1932Q388
1976 411 2019Q501 1994 541 1909Q458 1785 319 1675Q274 1639 225 1609Z" />
<glyph unicode="&#xce;" glyph-name="Icircumflex" horiz-adv-x="683" d="M109 85L248 128V1364L102 1398L95 1411L109 1492H585L589 1483L579 1407L435 1364V128L587 94L594 80L579 0H104L99 9L109 85ZM51 1577Q21 1588 8 1609T-16 1649Q-2 1661 25 1690Q102
1778 140 1826L254 1970Q274 1996 279 2004Q349 2017 420 2004Q428 1990 451 1960L672 1678Q693 1652 699 1646Q682 1605 653 1589Q641 1583 625 1577Q544 1635 419 1786L364 1853H339Q315 1824 279 1785L201 1706Q103 1609 51 1577Z" />
<glyph unicode="&#xcf;" glyph-name="Idieresis" horiz-adv-x="683" d="M109 85L248 128V1364L102 1398L95 1411L109 1492H585L589 1483L579 1407L435 1364V128L587 94L594 80L579 0H104L99 9L109 85ZM600 1723T577 1712T531 1700T487 1709T448 1736Q409 1773
409 1805T418 1859T443 1899Q479 1939 513 1939T570 1930T611 1906Q654 1870 654 1838T644 1783T617 1742ZM221 1723T198 1712T153 1700T109 1709T69 1736Q29 1774 29 1806T38 1859T63 1899Q99 1939 148 1939Q193 1939 222 1914Q274 1869 274 1826Q274 1782 248
1753Z" />
<glyph unicode="&#xd0;" glyph-name="Eth" horiz-adv-x="1532" d="M18 85L166 128V688H14Q-7 750 28 805H166V1353L22 1391L15 1405L29 1492H694Q1012 1492 1201 1288Q1388 1085 1388 750Q1388 427 1166 211Q949 0 634 0H13L8 9L18 85ZM610 1375Q486 1375 350
1353V805H756Q768 743 742 688H350V153Q488 130 637 130T881 164T1044 269Q1186 417 1186 694Q1186 1020 1018 1204Q863 1375 610 1375Z" />
<glyph unicode="&#xd1;" glyph-name="Ntilde" horiz-adv-x="1705" d="M110 85L263 128V1367L96 1398L89 1411L103 1492H433L1366 351V1362L1195 1398L1189 1411L1202 1492H1613L1618 1483L1608 1407L1483 1364V0Q1465 -36 1424 -36L381 1252V128L517 94L524 80L510
0H105L101 9L110 85ZM1019 1874Q1089 1874 1199 1988Q1238 1967 1252 1944T1267 1912Q1108 1728 1010 1728Q963 1728 913 1759T838 1805T784 1820Q738 1820 687 1780T608 1710Q572 1726 547 1765Q540 1776 539 1785Q698 1966 795 1966Q842 1966 890 1935T964 1889T1019
1874Z" />
<glyph unicode="&#xd2;" glyph-name="Ograve" horiz-adv-x="1705" d="M227 281T177 416T126 685T153 922T231 1114T351 1276T506 1400Q682 1508 863 1508T1173 1451T1392 1294Q1579 1086 1579 761Q1579 423 1356 192Q1216 47 1024 -8Q928 -36 798 -36T539 22T319
180ZM331 784Q331 632 374 502T494 280Q649 94 889 94Q1108 94 1238 240Q1374 393 1374 669Q1374 994 1214 1192Q1064 1380 832 1380Q598 1380 465 1227Q331 1072 331 784ZM781 2019Q874 1844 1052 1685Q1038 1647 1018 1631T967 1609Q826 1696 712 1830Q677 1870
652 1909Q690 1994 781 2019Z" />
<glyph unicode="&#xd3;" glyph-name="Oacute" horiz-adv-x="1705" d="M227 281T177 416T126 685T153 922T231 1114T351 1276T506 1400Q682 1508 863 1508T1173 1451T1392 1294Q1579 1086 1579 761Q1579 423 1356 192Q1216 47 1024 -8Q928 -36 798 -36T539 22T319
180ZM331 784Q331 632 374 502T494 280Q649 94 889 94Q1108 94 1238 240Q1374 393 1374 669Q1374 994 1214 1192Q1064 1380 832 1380Q598 1380 465 1227Q331 1072 331 784ZM736 1609Q706 1615 686 1631T652 1685Q772 1793 868 1932Q899 1976 922 2019Q1012 1994
1052 1909Q969 1785 830 1675Q785 1639 736 1609Z" />
<glyph unicode="&#xd4;" glyph-name="Ocircumflex" horiz-adv-x="1705" d="M227 281T177 416T126 685T153 922T231 1114T351 1276T506 1400Q682 1508 863 1508T1173 1451T1392 1294Q1579 1086 1579 761Q1579 423 1356 192Q1216 47 1024 -8Q928 -36 798 -36T539
22T319 180ZM331 784Q331 632 374 502T494 280Q649 94 889 94Q1108 94 1238 240Q1374 393 1374 669Q1374 994 1214 1192Q1064 1380 832 1380Q598 1380 465 1227Q331 1072 331 784ZM562 1577Q532 1588 519 1609T495 1649Q509 1661 536 1690Q613 1778 651 1826L765
1970Q785 1996 790 2004Q860 2017 931 2004Q939 1990 962 1960L1183 1678Q1204 1652 1210 1646Q1193 1605 1164 1589Q1152 1583 1136 1577Q1055 1635 930 1786L875 1853H850Q826 1824 790 1785L712 1706Q614 1609 562 1577Z" />
<glyph unicode="&#xd5;" glyph-name="Otilde" horiz-adv-x="1705" d="M227 281T177 416T126 685T153 922T231 1114T351 1276T506 1400Q682 1508 863 1508T1173 1451T1392 1294Q1579 1086 1579 761Q1579 423 1356 192Q1216 47 1024 -8Q928 -36 798 -36T539 22T319
180ZM331 784Q331 632 374 502T494 280Q649 94 889 94Q1108 94 1238 240Q1374 393 1374 669Q1374 994 1214 1192Q1064 1380 832 1380Q598 1380 465 1227Q331 1072 331 784ZM969 1874Q1039 1874 1149 1988Q1188 1967 1202 1944T1217 1912Q1058 1728 960 1728Q913
1728 863 1759T788 1805T734 1820Q688 1820 637 1780T558 1710Q522 1726 497 1765Q490 1776 489 1785Q648 1966 745 1966Q792 1966 840 1935T914 1889T969 1874Z" />
<glyph unicode="&#xd6;" glyph-name="Odieresis" horiz-adv-x="1705" d="M227 281T177 416T126 685T153 922T231 1114T351 1276T506 1400Q682 1508 863 1508T1173 1451T1392 1294Q1579 1086 1579 761Q1579 423 1356 192Q1216 47 1024 -8Q928 -36 798 -36T539 22T319
180ZM331 784Q331 632 374 502T494 280Q649 94 889 94Q1108 94 1238 240Q1374 393 1374 669Q1374 994 1214 1192Q1064 1380 832 1380Q598 1380 465 1227Q331 1072 331 784ZM1111 1723T1088 1712T1042 1700T998 1709T959 1736Q920 1773 920 1805T929 1859T954 1899Q990
1939 1024 1939T1081 1930T1122 1906Q1165 1870 1165 1838T1155 1783T1128 1742ZM732 1723T709 1712T664 1700T620 1709T580 1736Q540 1774 540 1806T549 1859T574 1899Q610 1939 659 1939Q704 1939 733 1914Q785 1869 785 1826Q785 1782 759 1753Z" />
<glyph unicode="&#xd7;" glyph-name="multiply" horiz-adv-x="1194" d="M523 574L253 845Q273 896 326 919L597 648L868 919Q909 896 919 881T937 852L664 580L941 304Q927 275 912 260T868 231L591 507L319 236Q272 257 253 304L523 574Z" />
<glyph unicode="&#xd8;" glyph-name="Oslash" horiz-adv-x="1705" d="M1024 -8Q928 -36 834 -36T656 -17L607 -162Q569 -162 508 -128L556 15Q356 96 242 282Q126 469 126 706Q126 1039 352 1276Q492 1423 686 1480Q782 1508 876 1508T1054 1489L1094 1607Q1130
1607 1159 1593T1196 1571L1157 1457Q1356 1377 1468 1191Q1579 1006 1579 761Q1579 423 1356 192Q1216 47 1024 -8ZM1006 1347Q923 1380 820 1380T623 1341T465 1227Q331 1072 331 796Q331 473 496 277Q548 216 611 175L1006 1347ZM705 127Q792 94 894 94T1085
131T1238 240Q1374 393 1374 669Q1374 998 1213 1194Q1163 1255 1102 1296L705 127Z" />
<glyph unicode="&#xd9;" glyph-name="Ugrave" horiz-adv-x="1532" d="M179 1364L57 1398L50 1411L64 1492H540L545 1483L534 1407L368 1364V560Q368 322 469 208T779 94Q956 94 1076 200Q1201 311 1201 499V1364L1048 1398L1041 1411L1055 1492H1477L1482 1483L1473
1407L1329 1364V492Q1329 255 1168 110Q1004 -36 733 -36Q466 -36 321 103Q179 239 179 476V1364ZM694 2019Q787 1844 965 1685Q951 1647 931 1631T880 1609Q739 1696 625 1830Q590 1870 565 1909Q603 1994 694 2019Z" />
<glyph unicode="&#xda;" glyph-name="Uacute" horiz-adv-x="1532" d="M179 1364L57 1398L50 1411L64 1492H540L545 1483L534 1407L368 1364V560Q368 322 469 208T779 94Q956 94 1076 200Q1201 311 1201 499V1364L1048 1398L1041 1411L1055 1492H1477L1482 1483L1473
1407L1329 1364V492Q1329 255 1168 110Q1004 -36 733 -36Q466 -36 321 103Q179 239 179 476V1364ZM649 1609Q619 1615 599 1631T565 1685Q685 1793 781 1932Q812 1976 835 2019Q925 1994 965 1909Q882 1785 743 1675Q698 1639 649 1609Z" />
<glyph unicode="&#xdb;" glyph-name="Ucircumflex" horiz-adv-x="1532" d="M179 1364L57 1398L50 1411L64 1492H540L545 1483L534 1407L368 1364V560Q368 322 469 208T779 94Q956 94 1076 200Q1201 311 1201 499V1364L1048 1398L1041 1411L1055 1492H1477L1482
1483L1473 1407L1329 1364V492Q1329 255 1168 110Q1004 -36 733 -36Q466 -36 321 103Q179 239 179 476V1364ZM475 1577Q445 1588 432 1609T408 1649Q422 1661 449 1690Q526 1778 564 1826L678 1970Q698 1996 703 2004Q773 2017 844 2004Q852 1990 875 1960L1096
1678Q1117 1652 1123 1646Q1106 1605 1077 1589Q1065 1583 1049 1577Q968 1635 843 1786L788 1853H763Q739 1824 703 1785L625 1706Q527 1609 475 1577Z" />
<glyph unicode="&#xdc;" glyph-name="Udieresis" horiz-adv-x="1532" d="M179 1364L57 1398L50 1411L64 1492H540L545 1483L534 1407L368 1364V560Q368 322 469 208T779 94Q956 94 1076 200Q1201 311 1201 499V1364L1048 1398L1041 1411L1055 1492H1477L1482 1483L1473
1407L1329 1364V492Q1329 255 1168 110Q1004 -36 733 -36Q466 -36 321 103Q179 239 179 476V1364ZM1024 1723T1001 1712T955 1700T911 1709T872 1736Q833 1773 833 1805T842 1859T867 1899Q903 1939 937 1939T994 1930T1035 1906Q1078 1870 1078 1838T1068 1783T1041
1742ZM645 1723T622 1712T577 1700T533 1709T493 1736Q453 1774 453 1806T462 1859T487 1899Q523 1939 572 1939Q617 1939 646 1914Q698 1869 698 1826Q698 1782 672 1753Z" />
<glyph unicode="&#xdd;" glyph-name="Yacute" horiz-adv-x="1196" d="M365 85L509 128V545L87 1364L-51 1398L-59 1411L-44 1492H469L474 1483L464 1407L314 1364L624 681L936 1357L790 1398L783 1411L797 1492H1251L1256 1483L1246 1407L1098 1364L698 559V128L844
94L851 80L837 0H361L356 9L365 85ZM482 1609Q452 1615 432 1631T398 1685Q518 1793 614 1932Q645 1976 668 2019Q758 1994 798 1909Q715 1785 576 1675Q531 1639 482 1609Z" />
<glyph unicode="&#xde;" glyph-name="Thorn" horiz-adv-x="1196" d="M570 335Q454 335 400 344V128L616 94L623 80L609 0H65L58 11L70 85L211 128V1364L65 1398L58 1411L72 1492H548L553 1483L542 1407L400 1364V1180H634Q1113 1180 1113 768Q1113 547 952 433Q814
335 570 335ZM569 1063Q480 1063 400 1043V459Q438 452 527 452T687 469T807 524Q913 605 913 768Q913 889 826 972Q732 1063 569 1063Z" />
<glyph unicode="&#xdf;" glyph-name="germandbls" horiz-adv-x="1196" d="M511 40Q518 132 584 193Q669 111 774 82Q810 72 842 72T903 80T952 106Q998 145 998 205T979 300T928 364T855 416L772 462Q663 523 624 566Q546 652 546 763Q546 852 589 915Q611 947
644 978L721 1048Q834 1154 834 1341Q834 1476 684 1524Q634 1539 574 1539T477 1527T417 1484Q377 1426 377 1254V0H83L76 9L85 85L216 128V1181Q216 1386 323 1516Q438 1656 636 1656Q800 1656 904 1563Q1000 1477 1000 1353Q1000 1207 894 1080Q863 1043 831
1010Q753 941 734 913Q701 864 701 813T720 727T772 663T844 612L928 564Q1034 505 1075 460Q1155 372 1155 259Q1155 127 1050 44Q949 -36 783 -36T511 40Z" />
<glyph unicode="&#xe0;" glyph-name="agrave" horiz-adv-x="1025" d="M863 144Q885 144 995 155L1006 141L983 59L707 -36L693 -21L675 115L615 66Q489 -36 408 -36T265 -8T160 67Q79 157 79 285Q79 396 138 448Q194 499 340 521T571 555T666 568V654Q666 923
462 923Q361 923 194 860Q154 889 154 946Q362 1048 517 1048Q826 1048 826 692V189Q826 144 863 144ZM257 310Q257 180 364 125Q397 108 431 108T497 118T559 142T618 172L666 202V447Q491 447 374 426T257 310ZM479 1180Q282 1301 163 1479Q203 1564 293 1589Q360
1467 486 1332Q525 1291 564 1256Q540 1190 479 1180Z" />
<glyph unicode="&#xe1;" glyph-name="aacute" horiz-adv-x="1025" d="M863 144Q885 144 995 155L1006 141L983 59L707 -36L693 -21L675 115L615 66Q489 -36 408 -36T265 -8T160 67Q79 157 79 285Q79 396 138 448Q194 499 340 521T571 555T666 568V654Q666 923
462 923Q361 923 194 860Q154 889 154 946Q362 1048 517 1048Q826 1048 826 692V189Q826 144 863 144ZM257 310Q257 180 364 125Q397 108 431 108T497 118T559 142T618 172L666 202V447Q491 447 374 426T257 310ZM480 1180Q419 1190 395 1256Q569 1412 666 1589Q756
1564 796 1479Q715 1357 574 1246Q529 1210 480 1180Z" />
<glyph unicode="&#xe2;" glyph-name="acircumflex" horiz-adv-x="1025" d="M863 144Q885 144 995 155L1006 141L983 59L707 -36L693 -21L675 115L615 66Q489 -36 408 -36T265 -8T160 67Q79 157 79 285Q79 396 138 448Q194 499 340 521T571 555T666 568V654Q666
923 462 923Q361 923 194 860Q154 889 154 946Q362 1048 517 1048Q826 1048 826 692V189Q826 144 863 144ZM257 310Q257 180 364 125Q397 108 431 108T497 118T559 142T618 172L666 202V447Q491 447 374 426T257 310ZM178 1180Q149 1191 135 1212T111 1251Q125
1263 151 1292Q229 1380 267 1428L381 1572Q401 1598 406 1606Q476 1621 547 1606Q555 1592 577 1562Q810 1267 826 1248Q809 1206 780 1192Q769 1186 753 1180Q694 1222 636 1286Q528 1408 491 1455H466Q442 1427 405 1388L329 1309Q235 1215 178 1180Z" />
<glyph unicode="&#xe3;" glyph-name="atilde" horiz-adv-x="1025" d="M863 144Q885 144 995 155L1006 141L983 59L707 -36L693 -21L675 115L615 66Q489 -36 408 -36T265 -8T160 67Q79 157 79 285Q79 396 138 448Q194 499 340 521T571 555T666 568V654Q666 923
462 923Q361 923 194 860Q154 889 154 946Q362 1048 517 1048Q826 1048 826 692V189Q826 144 863 144ZM257 310Q257 180 364 125Q397 108 431 108T497 118T559 142T618 172L666 202V447Q491 447 374 426T257 310ZM596 1386Q664 1386 776 1498Q813 1480 828 1457T844
1424Q685 1240 587 1240Q541 1240 491 1271T415 1317T361 1332Q286 1332 185 1220Q147 1241 133 1264T117 1296Q235 1433 332 1470Q353 1478 380 1478T435 1464T490 1432T541 1401T596 1386Z" />
<glyph unicode="&#xe4;" glyph-name="adieresis" horiz-adv-x="1025" d="M863 144Q885 144 995 155L1006 141L983 59L707 -36L693 -21L675 115L615 66Q489 -36 408 -36T265 -8T160 67Q79 157 79 285Q79 396 138 448Q194 499 340 521T571 555T666 568V654Q666 923
462 923Q361 923 194 860Q154 889 154 946Q362 1048 517 1048Q826 1048 826 692V189Q826 144 863 144ZM257 310Q257 180 364 125Q397 108 431 108T497 118T559 142T618 172L666 202V447Q491 447 374 426T257 310ZM758 1231T736 1220T691 1208T647 1217T608 1242Q567
1278 567 1311T576 1366T601 1406Q637 1446 685 1446Q730 1446 759 1422Q812 1377 812 1333Q812 1288 785 1260ZM339 1231T316 1220T271 1208T227 1217T188 1242Q148 1277 148 1310T157 1366T182 1406Q218 1446 266 1446Q311 1446 340 1422Q393 1377 393 1333Q393
1288 366 1260Z" />
<glyph unicode="&#xe5;" glyph-name="aring" horiz-adv-x="1025" d="M863 144Q885 144 995 155L1006 141L983 59L707 -36L693 -21L675 115L615 66Q489 -36 408 -36T265 -8T160 67Q79 157 79 285Q79 396 138 448Q194 499 340 521T571 555T666 568V654Q666 923 462
923Q361 923 194 860Q154 889 154 946Q362 1048 517 1048Q826 1048 826 692V189Q826 144 863 144ZM257 310Q257 180 364 125Q397 108 431 108T497 118T559 142T618 172L666 202V447Q491 447 374 426T257 310ZM481 1217Q434 1217 392 1233T319 1279Q254 1341 254
1434Q254 1528 331 1597Q404 1663 500 1663Q597 1663 659 1604Q722 1545 722 1452Q722 1350 649 1282Q578 1217 481 1217ZM485 1568Q382 1568 382 1454Q382 1359 457 1320Q477 1310 497 1310Q593 1310 593 1424Q593 1487 557 1530Q525 1568 485 1568Z" />
<glyph unicode="&#xe6;" glyph-name="ae" horiz-adv-x="1703" d="M1501 227Q1552 205 1557 153Q1404 8 1250 -28Q1215 -36 1165 -36T1057 -20T950 25Q851 83 789 182L760 153Q576 -36 459 -36Q299 -36 206 67Q125 157 125 285Q125 396 184 448Q240 499 387 521T618
555T712 568V654Q712 923 508 923Q407 923 240 860Q200 889 200 946Q408 1048 549 1048Q791 1048 848 869Q920 953 1017 1000T1213 1048T1379 1015T1490 924Q1578 812 1578 638Q1578 589 1569 553Q1559 530 1157 530H1024Q954 530 876 532Q878 342 1000 224Q1108
120 1244 120T1501 227ZM959 624Q1239 624 1397 643Q1397 750 1332 840Q1263 937 1166 937Q1060 937 983 856Q900 771 881 624H959ZM751 243Q712 329 712 447Q555 447 429 429Q364 416 334 387T304 310T317 228T354 168Q407 108 483 108Q568 108 694 198Q727 222
751 243Z" />
<glyph unicode="&#xe7;" glyph-name="ccedilla" horiz-adv-x="1024" d="M469 -218Q444 -204 423 -163L481 -26Q302 9 200 148Q102 282 102 474Q102 712 264 880Q426 1048 653 1048Q823 1048 916 980Q911 929 885 887T829 820Q692 935 547 935Q434 935 351 817Q269
700 269 537Q269 345 390 226Q497 120 635 120Q790 120 893 227Q949 202 949 153Q775 -7 634 -32L603 -121Q652 -103 689 -106Q762 -111 799 -160T833 -276T796 -385T710 -462Q602 -530 461 -530Q450 -517 450 -489T451 -442Q550 -438 606 -398Q684 -345 664 -255Q648
-186 576 -186T469 -218Z" />
<glyph unicode="&#xe8;" glyph-name="egrave" horiz-adv-x="1025" d="M871 227Q923 206 928 153Q775 8 620 -28Q586 -36 551 -36Q341 -36 210 112Q80 257 80 474Q80 710 235 880Q306 958 399 1003T587 1048T749 1015T860 924Q948 812 948 638Q948 589 939 553Q928
528 528 528Q395 528 247 532Q249 341 370 224Q478 120 614 120T871 227ZM330 624Q630 624 768 643Q768 750 704 840Q634 937 537 937Q431 937 354 858Q271 775 252 624H330ZM567 1180Q370 1301 251 1479Q291 1564 381 1589Q448 1467 574 1332Q613 1291 652 1256Q628
1190 567 1180Z" />
<glyph unicode="&#xe9;" glyph-name="eacute" horiz-adv-x="1025" d="M871 227Q923 206 928 153Q775 8 620 -28Q586 -36 551 -36Q341 -36 210 112Q80 257 80 474Q80 710 235 880Q306 958 399 1003T587 1048T749 1015T860 924Q948 812 948 638Q948 589 939 553Q928
528 528 528Q395 528 247 532Q249 341 370 224Q478 120 614 120T871 227ZM330 624Q630 624 768 643Q768 750 704 840Q634 937 537 937Q431 937 354 858Q271 775 252 624H330ZM568 1180Q507 1190 483 1256Q657 1412 754 1589Q844 1564 884 1479Q803 1357 662 1246Q617
1210 568 1180Z" />
<glyph unicode="&#xea;" glyph-name="ecircumflex" horiz-adv-x="1025" d="M871 227Q923 206 928 153Q775 8 620 -28Q586 -36 551 -36Q341 -36 210 112Q80 257 80 474Q80 710 235 880Q306 958 399 1003T587 1048T749 1015T860 924Q948 812 948 638Q948 589 939
553Q928 528 528 528Q395 528 247 532Q249 341 370 224Q478 120 614 120T871 227ZM330 624Q630 624 768 643Q768 750 704 840Q634 937 537 937Q431 937 354 858Q271 775 252 624H330ZM266 1180Q237 1191 223 1212T199 1251Q213 1263 239 1292Q317 1380 355 1428L469
1572Q489 1598 494 1606Q564 1621 635 1606Q643 1592 665 1562Q898 1267 914 1248Q897 1206 868 1192Q857 1186 841 1180Q782 1222 724 1286Q616 1408 579 1455H554Q530 1427 493 1388L417 1309Q323 1215 266 1180Z" />
<glyph unicode="&#xeb;" glyph-name="edieresis" horiz-adv-x="1025" d="M871 227Q923 206 928 153Q775 8 620 -28Q586 -36 551 -36Q341 -36 210 112Q80 257 80 474Q80 710 235 880Q306 958 399 1003T587 1048T749 1015T860 924Q948 812 948 638Q948 589 939 553Q928
528 528 528Q395 528 247 532Q249 341 370 224Q478 120 614 120T871 227ZM330 624Q630 624 768 643Q768 750 704 840Q634 937 537 937Q431 937 354 858Q271 775 252 624H330ZM846 1231T824 1220T779 1208T735 1217T696 1242Q655 1278 655 1311T664 1366T689 1406Q725
1446 773 1446Q818 1446 847 1422Q900 1377 900 1333Q900 1288 873 1260ZM427 1231T404 1220T359 1208T315 1217T276 1242Q236 1277 236 1310T245 1366T270 1406Q306 1446 354 1446Q399 1446 428 1422Q481 1377 481 1333Q481 1288 454 1260Z" />
<glyph unicode="&#xec;" glyph-name="igrave" horiz-adv-x="682" d="M140 85L272 128V789L133 848L122 860L133 914L415 1029L432 1020V128L592 94L596 80L585 0H137L130 9L140 85ZM358 1180Q161 1301 42 1479Q82 1564 172 1589Q239 1467 365 1332Q404 1291 443
1256Q419 1190 358 1180Z" />
<glyph unicode="&#xed;" glyph-name="iacute" horiz-adv-x="682" d="M140 85L272 128V789L133 848L122 860L133 914L415 1029L432 1020V128L592 94L596 80L585 0H137L130 9L140 85ZM359 1180Q298 1190 274 1256Q448 1412 545 1589Q635 1564 675 1479Q594 1357
453 1246Q408 1210 359 1180Z" />
<glyph unicode="&#xee;" glyph-name="icircumflex" horiz-adv-x="682" d="M140 85L272 128V789L133 848L122 860L133 914L415 1029L432 1020V128L592 94L596 80L585 0H137L130 9L140 85ZM314 1180Q285 1191 271 1212T247 1251Q261 1263 287 1292Q365 1380 403
1428L517 1572Q537 1598 542 1606Q612 1621 683 1606Q691 1592 713 1562Q946 1267 962 1248Q945 1206 916 1192Q905 1186 889 1180Q830 1222 772 1286Q664 1408 627 1455H602Q578 1427 541 1388L465 1309Q371 1215 314 1180Z" />
<glyph unicode="&#xef;" glyph-name="idieresis" horiz-adv-x="682" d="M140 85L272 128V789L133 848L122 860L133 914L415 1029L432 1020V128L592 94L596 80L585 0H137L130 9L140 85ZM894 1231T872 1220T827 1208T783 1217T744 1242Q703 1278 703 1311T712 1366T737
1406Q773 1446 821 1446Q866 1446 895 1422Q948 1377 948 1333Q948 1288 921 1260ZM475 1231T452 1220T407 1208T363 1217T324 1242Q284 1277 284 1310T293 1366T318 1406Q354 1446 402 1446Q447 1446 476 1422Q529 1377 529 1333Q529 1288 502 1260Z" />
<glyph unicode="&#xf0;" glyph-name="eth" horiz-adv-x="1196" d="M413 1562Q559 1488 671 1402L936 1535Q969 1508 977 1451L748 1333Q950 1139 1043 853Q1098 684 1098 533T1058 283T947 113Q798 -36 568 -36Q351 -36 212 117Q78 265 78 485Q78 742 237 882Q377
1006 593 1006Q724 1006 800 958Q715 1182 628 1272Q364 1137 364 1140Q327 1170 323 1225L555 1342Q446 1434 354 1488Q357 1527 386 1548Q398 1558 413 1562ZM258 546Q258 444 290 358T373 209Q481 76 613 76Q832 76 898 274Q920 342 920 443T897 629T833 773Q748
895 607 895Q258 895 258 546Z" />
<glyph unicode="&#xf1;" glyph-name="ntilde" horiz-adv-x="1365" d="M739 897Q600 897 431 820V128L591 94L595 80L584 0H136L129 9L139 85L271 128V796L132 857L122 869L132 923L395 1029L412 1020V897Q642 1048 788 1048Q938 1048 1022 956Q1105 866 1105 706V128L1278
94L1283 80L1271 0H795L791 9L800 85L944 128V659Q944 897 739 897ZM796 1386Q864 1386 976 1498Q1013 1480 1028 1457T1044 1424Q885 1240 787 1240Q741 1240 691 1271T615 1317T561 1332Q486 1332 385 1220Q347 1241 333 1264T317 1296Q435 1433 532 1470Q553
1478 580 1478T635 1464T690 1432T741 1401T796 1386Z" />
<glyph unicode="&#xf2;" glyph-name="ograve" horiz-adv-x="1195" d="M88 490Q88 603 130 706T246 885Q403 1048 619 1048Q842 1048 977 898Q1107 754 1107 526Q1107 288 951 124Q798 -36 578 -36Q361 -36 222 117Q88 265 88 490ZM310 794T288 721T266 546T298
358T381 209Q489 76 622 76Q842 76 906 284Q929 357 929 462T897 655T814 805T702 902T575 937T451 914T351 842ZM597 1180Q400 1301 281 1479Q321 1564 411 1589Q478 1467 604 1332Q643 1291 682 1256Q658 1190 597 1180Z" />
<glyph unicode="&#xf3;" glyph-name="oacute" horiz-adv-x="1195" d="M88 490Q88 603 130 706T246 885Q403 1048 619 1048Q842 1048 977 898Q1107 754 1107 526Q1107 288 951 124Q798 -36 578 -36Q361 -36 222 117Q88 265 88 490ZM310 794T288 721T266 546T298
358T381 209Q489 76 622 76Q842 76 906 284Q929 357 929 462T897 655T814 805T702 902T575 937T451 914T351 842ZM598 1180Q537 1190 513 1256Q687 1412 784 1589Q874 1564 914 1479Q833 1357 692 1246Q647 1210 598 1180Z" />
<glyph unicode="&#xf4;" glyph-name="ocircumflex" horiz-adv-x="1195" d="M88 490Q88 603 130 706T246 885Q403 1048 619 1048Q842 1048 977 898Q1107 754 1107 526Q1107 288 951 124Q798 -36 578 -36Q361 -36 222 117Q88 265 88 490ZM310 794T288 721T266 546T298
358T381 209Q489 76 622 76Q842 76 906 284Q929 357 929 462T897 655T814 805T702 902T575 937T451 914T351 842ZM296 1180Q267 1191 253 1212T229 1251Q243 1263 269 1292Q347 1380 385 1428L499 1572Q519 1598 524 1606Q594 1621 665 1606Q673 1592 695 1562Q928
1267 944 1248Q927 1206 898 1192Q887 1186 871 1180Q812 1222 754 1286Q646 1408 609 1455H584Q560 1427 523 1388L447 1309Q353 1215 296 1180Z" />
<glyph unicode="&#xf5;" glyph-name="otilde" horiz-adv-x="1195" d="M88 490Q88 603 130 706T246 885Q403 1048 619 1048Q842 1048 977 898Q1107 754 1107 526Q1107 288 951 124Q798 -36 578 -36Q361 -36 222 117Q88 265 88 490ZM310 794T288 721T266 546T298
358T381 209Q489 76 622 76Q842 76 906 284Q929 357 929 462T897 655T814 805T702 902T575 937T451 914T351 842ZM714 1386Q782 1386 894 1498Q931 1480 946 1457T962 1424Q803 1240 705 1240Q659 1240 609 1271T533 1317T479 1332Q404 1332 303 1220Q265 1241
251 1264T235 1296Q353 1433 450 1470Q471 1478 498 1478T553 1464T608 1432T659 1401T714 1386Z" />
<glyph unicode="&#xf6;" glyph-name="odieresis" horiz-adv-x="1195" d="M88 490Q88 603 130 706T246 885Q403 1048 619 1048Q842 1048 977 898Q1107 754 1107 526Q1107 288 951 124Q798 -36 578 -36Q361 -36 222 117Q88 265 88 490ZM310 794T288 721T266 546T298
358T381 209Q489 76 622 76Q842 76 906 284Q929 357 929 462T897 655T814 805T702 902T575 937T451 914T351 842ZM876 1231T854 1220T809 1208T765 1217T726 1242Q685 1278 685 1311T694 1366T719 1406Q755 1446 803 1446Q848 1446 877 1422Q930 1377 930 1333Q930
1288 903 1260ZM457 1231T434 1220T389 1208T345 1217T306 1242Q266 1277 266 1310T275 1366T300 1406Q336 1446 384 1446Q429 1446 458 1422Q511 1377 511 1333Q511 1288 484 1260Z" />
<glyph unicode="&#xf7;" glyph-name="divide" horiz-adv-x="1194" d="M656 819T633 808T587 796T543 805T504 831Q465 868 465 900T474 954T499 994Q535 1034 569 1034T625 1025T667 1000Q710 965 710 933T700 878T673 838ZM1041 593T1041 580T1032 532H161Q142
579 161 627H1032Q1041 593 1041 580ZM487 180T476 201T465 244T474 287T499 327Q535 367 569 367T625 358T667 334Q710 298 710 266T700 211T673 171Q634 130 584 130Q542 130 515 155Z" />
<glyph unicode="&#xf8;" glyph-name="oslash" horiz-adv-x="1195" d="M572 -36Q457 -36 347 18L260 -103Q198 -93 170 -43L257 80Q88 232 88 485Q88 721 246 885Q403 1048 619 1048Q767 1048 884 975L966 1092Q1028 1087 1053 1034L963 910Q1107 760 1107 526Q1107
288 951 124Q798 -36 572 -36ZM792 829Q690 937 583 937Q353 937 288 720Q266 647 266 548Q266 361 368 224L792 829ZM430 158Q523 76 622 76Q842 76 906 284Q929 357 929 454Q929 624 844 764L430 158Z" />
<glyph unicode="&#xf9;" glyph-name="ugrave" horiz-adv-x="1196" d="M468 133Q511 115 592 115T827 205V798L685 860L679 872L685 926L968 1029L987 1022V200Q987 179 994 167T1018 155T1056 157L1099 161Q1125 164 1154 167L1166 153L1142 70L869 -23L855 -9L843
115L834 117L786 82Q707 25 637 -5T507 -36T385 -12T280 58Q193 149 193 308V825L94 874L85 885L94 940L337 1029L353 1020V353Q353 180 468 133ZM585 1180Q388 1301 269 1479Q309 1564 399 1589Q466 1467 592 1332Q631 1291 670 1256Q646 1190 585 1180Z" />
<glyph unicode="&#xfa;" glyph-name="uacute" horiz-adv-x="1196" d="M468 133Q511 115 592 115T827 205V798L685 860L679 872L685 926L968 1029L987 1022V200Q987 179 994 167T1018 155T1056 157L1099 161Q1125 164 1154 167L1166 153L1142 70L869 -23L855 -9L843
115L834 117L786 82Q707 25 637 -5T507 -36T385 -12T280 58Q193 149 193 308V825L94 874L85 885L94 940L337 1029L353 1020V353Q353 180 468 133ZM586 1180Q525 1190 501 1256Q675 1412 772 1589Q862 1564 902 1479Q821 1357 680 1246Q635 1210 586 1180Z" />
<glyph unicode="&#xfb;" glyph-name="ucircumflex" horiz-adv-x="1196" d="M468 133Q511 115 592 115T827 205V798L685 860L679 872L685 926L968 1029L987 1022V200Q987 179 994 167T1018 155T1056 157L1099 161Q1125 164 1154 167L1166 153L1142 70L869 -23L855
-9L843 115L834 117L786 82Q707 25 637 -5T507 -36T385 -12T280 58Q193 149 193 308V825L94 874L85 885L94 940L337 1029L353 1020V353Q353 180 468 133ZM284 1180Q255 1191 241 1212T217 1251Q231 1263 257 1292Q335 1380 373 1428L487 1572Q507 1598 512 1606Q582
1621 653 1606Q661 1592 683 1562Q916 1267 932 1248Q915 1206 886 1192Q875 1186 859 1180Q800 1222 742 1286Q634 1408 597 1455H572Q548 1427 511 1388L435 1309Q341 1215 284 1180Z" />
<glyph unicode="&#xfc;" glyph-name="udieresis" horiz-adv-x="1196" d="M468 133Q511 115 592 115T827 205V798L685 860L679 872L685 926L968 1029L987 1022V200Q987 179 994 167T1018 155T1056 157L1099 161Q1125 164 1154 167L1166 153L1142 70L869 -23L855
-9L843 115L834 117L786 82Q707 25 637 -5T507 -36T385 -12T280 58Q193 149 193 308V825L94 874L85 885L94 940L337 1029L353 1020V353Q353 180 468 133ZM864 1231T842 1220T797 1208T753 1217T714 1242Q673 1278 673 1311T682 1366T707 1406Q743 1446 791 1446Q836
1446 865 1422Q918 1377 918 1333Q918 1288 891 1260ZM445 1231T422 1220T377 1208T333 1217T294 1242Q254 1277 254 1310T263 1366T288 1406Q324 1446 372 1446Q417 1446 446 1422Q499 1377 499 1333Q499 1288 472 1260Z" />
<glyph unicode="&#xfd;" glyph-name="yacute" horiz-adv-x="1194" d="M266 -450Q452 -169 540 5L184 892L69 921L62 933L73 1013H489L496 1003L486 930L375 892L628 162H637Q700 317 749 450L833 683Q873 799 903 895L759 921L754 933L766 1013H1143L1150 1003L1136
921L1030 892L734 153Q681 24 624 -100L521 -321L414 -538Q358 -538 306 -494Q283 -475 266 -450ZM639 1180Q578 1190 554 1256Q728 1412 825 1589Q915 1564 955 1479Q874 1357 733 1246Q688 1210 639 1180Z" />
<glyph unicode="&#xfe;" glyph-name="thorn" horiz-adv-x="1194" d="M863 57T767 11T565 -36T327 0V-389L528 -424L532 -438L521 -519H33L26 -506L35 -434L168 -389V1380L8 1420L1 1434L8 1488L311 1602L327 1592V923Q497 1048 614 1048T813 1011T954 906Q1076
767 1076 549Q1076 306 932 137Q863 57 767 11ZM541 895Q439 895 327 836V207Q389 131 498 92Q544 76 605 76T723 106T821 190Q909 306 909 485Q909 680 814 789Q721 895 541 895Z" />
<glyph unicode="&#xff;" glyph-name="ydieresis" horiz-adv-x="1194" d="M266 -450Q452 -169 540 5L184 892L69 921L62 933L73 1013H489L496 1003L486 930L375 892L628 162H637Q700 317 749 450L833 683Q873 799 903 895L759 921L754 933L766 1013H1143L1150 1003L1136
921L1030 892L734 153Q681 24 624 -100L521 -321L414 -538Q358 -538 306 -494Q283 -475 266 -450ZM917 1231T895 1220T850 1208T806 1217T767 1242Q726 1278 726 1311T735 1366T760 1406Q796 1446 844 1446Q889 1446 918 1422Q971 1377 971 1333Q971 1288 944 1260ZM498
1231T475 1220T430 1208T386 1217T347 1242Q307 1277 307 1310T316 1366T341 1406Q377 1446 425 1446Q470 1446 499 1422Q552 1377 552 1333Q552 1288 525 1260Z" />
<glyph unicode="&#x2013;" glyph-name="endash" horiz-adv-x="1196" d="M1042 597T1042 580T1034 532H162Q145 579 162 627H1034Q1042 597 1042 580Z" />
<glyph unicode="&#x2014;" glyph-name="emdash" horiz-adv-x="1703" d="M1554 593T1554 580T1545 532H158Q141 579 158 627H1545Q1554 593 1554 580Z" />
<glyph unicode="&#x2018;" glyph-name="quoteleft" horiz-adv-x="512" d="M353 1181Q366 1164 366 1140T356 1095T328 1055Q288 1013 256 1013T201 1026T160 1059Q121 1104 121 1154T130 1249T156 1333Q217 1481 345 1568Q385 1559 389 1517Q387 1517 370 1498T333
1451Q281 1376 281 1330T294 1258T323 1215L353 1181Z" />
<glyph unicode="&#x2019;" glyph-name="quoteright" horiz-adv-x="512" d="M158 1338Q145 1355 145 1379T155 1424T183 1464Q223 1506 255 1506T310 1493T351 1460Q390 1415 390 1365T381 1270T355 1186Q294 1038 166 951Q126 960 122 1002Q124 1002 141 1021T178
1068Q230 1143 230 1189T217 1261T188 1304L158 1338Z" />
<glyph unicode="&#x201a;" glyph-name="quotesinglbase" horiz-adv-x="512" d="M158 48Q145 65 145 89T155 134T183 174Q223 216 255 216T310 203T351 170Q390 125 390 75T381 -20T355 -104Q294 -252 166 -339Q126 -330 122 -288Q124 -288 141 -269T178 -222Q230
-147 230 -101T217 -29T188 14L158 48Z" />
<glyph unicode="&#x201c;" glyph-name="quotedblleft" horiz-adv-x="854" d="M349 1179Q362 1162 362 1138T352 1093T324 1053Q284 1011 252 1011T197 1024T156 1057Q117 1102 117 1152T126 1247T152 1331Q213 1479 341 1566Q381 1557 385 1515Q383 1515 366 1496T329
1449Q277 1374 277 1328T290 1256T319 1213L349 1179ZM702 1179Q715 1162 715 1138T705 1093T677 1053Q637 1011 605 1011T550 1024T509 1057Q470 1102 470 1152T479 1247T505 1331Q566 1479 694 1566Q734 1557 738 1515Q736 1515 719 1496T682 1449Q630 1374 630
1328T643 1256T672 1213L702 1179Z" />
<glyph unicode="&#x201d;" glyph-name="quotedblright" horiz-adv-x="854" d="M153 1338Q140 1355 140 1379T150 1424T178 1464Q218 1506 250 1506T305 1493T346 1460Q385 1415 385 1365T376 1270T350 1186Q289 1038 161 951Q121 960 117 1002Q119 1002 136 1021T173
1068Q225 1143 225 1189T212 1261T183 1304L153 1338ZM505 1338Q492 1355 492 1379T502 1424T530 1464Q570 1506 602 1506T657 1493T698 1460Q737 1415 737 1365T728 1270T702 1186Q641 1038 513 951Q473 960 469 1002Q471 1002 488 1021T525 1068Q577 1143 577
1189T564 1261T535 1304L505 1338Z" />
<glyph unicode="&#x201e;" glyph-name="quotedblbase" horiz-adv-x="854" d="M409 48Q396 65 396 89T406 134T434 174Q474 216 506 216T561 203T602 170Q641 125 641 75T632 -20T606 -104Q545 -252 417 -339Q377 -330 373 -288Q375 -288 392 -269T429 -222Q481
-147 481 -101T468 -29T439 14L409 48ZM505 48Q492 65 492 89T502 134T530 174Q570 216 602 216T657 203T698 170Q737 125 737 75T728 -20T702 -104Q641 -252 513 -339Q473 -330 469 -288Q471 -288 488 -269T525 -222Q577 -147 577 -101T564 -29T535 14L505 48Z"
/>
<glyph unicode="&#x2022;" glyph-name="bullet" horiz-adv-x="512" d="M256 436Q176 436 120 492T63 629Q63 710 120 765Q178 822 256 822Q335 822 392 765Q448 709 448 629Q448 550 392 492Q337 436 256 436Z" />
<glyph unicode="&#x2039;" glyph-name="guilsinglleft" horiz-adv-x="682" d="M66 553Q61 594 83 624L513 991Q576 974 586 906L254 586L593 254Q586 227 567 204T526 169L66 553Z" />
<glyph unicode="&#x203a;" glyph-name="guilsinglright" horiz-adv-x="682" d="M616 618Q621 577 599 547L169 180Q106 197 96 265L428 585L89 917Q96 944 115 967T156 1002L616 618Z" />
</font>
</defs>
</svg>
